#define btonhi_width 16
#define btonhi_height 16
static char btonhi_bits[] = {
   0x00, 0x00, 0x00, 0x00, 0xfc, 0x1f, 0x04, 0x10, 0xf4, 0x77, 0xf4, 0x77,
   0xf4, 0x77, 0xf4, 0x77, 0xf4, 0x77, 0xf4, 0x77, 0xf4, 0x77, 0xf4, 0x77,
   0x04, 0x70, 0xfc, 0x7f, 0xf0, 0x7f, 0xf0, 0x7f};
