#define folder2_width 32
#define folder2_height 32
static char folder2_bits[] = {
   0x00, 0x00, 0x00, 0x00, 0x00, 0x00, 0x00, 0x00, 0xf0, 0x1f, 0x00, 0x00,
   0x08, 0x20, 0x00, 0x00, 0xfc, 0x27, 0x00, 0x00, 0x02, 0xe8, 0xff, 0x7f,
   0x02, 0x08, 0x00, 0x40, 0x02, 0xf8, 0xff, 0x5f, 0x02, 0x00, 0x00, 0x50,
   0x02, 0x00, 0x00, 0x50, 0x02, 0x00, 0x00, 0x50, 0x02, 0x00, 0x00, 0x50,
   0x02, 0x00, 0x00, 0x50, 0x02, 0x00, 0x00, 0x50, 0x02, 0x00, 0x00, 0x50,
   0x02, 0x00, 0x00, 0x50, 0x02, 0x00, 0x00, 0x50, 0x02, 0x00, 0x00, 0x50,
   0x02, 0x00, 0x00, 0x50, 0x02, 0x00, 0x00, 0x50, 0x02, 0x00, 0x00, 0x50,
   0x02, 0x00, 0x00, 0x50, 0x02, 0x00, 0x00, 0x50, 0x02, 0x00, 0x00, 0x50,
   0x02, 0x00, 0x00, 0x50, 0x02, 0x00, 0x00, 0x50, 0xfe, 0xff, 0xff, 0x7f,
   0xfe, 0xff, 0xff, 0x3f, 0x00, 0x00, 0x00, 0x00, 0x00, 0x00, 0x00, 0x00,
   0x00, 0x00, 0x00, 0x00, 0x00, 0x00, 0x00, 0x00};
