#define default_width 16
#define default_height 16
static char default_bits[] = {
   0xff, 0xff, 0x03, 0xc0, 0xe1, 0x87, 0xf1, 0x8f, 0x31, 0x8c, 0x01, 0x8c,
   0x01, 0x8c, 0x01, 0x86, 0x01, 0x83, 0x81, 0x81, 0x81, 0x81, 0x01, 0x80,
   0x81, 0x81, 0x81, 0x81, 0x03, 0xc0, 0xff, 0xff};
