#define file_width 16
#define file_height 16
static char file_bits[] = {
   0x00, 0x00, 0xfc, 0x3f, 0x04, 0x20, 0xf4, 0x20, 0x04, 0x20, 0xf4, 0x27,
   0x04, 0x20, 0xf4, 0x20, 0x04, 0x20, 0xf4, 0x21, 0x04, 0x20, 0xf4, 0x27,
   0x04, 0x20, 0x04, 0x20, 0xfc, 0x3f, 0x00, 0x00};
