#define schematic_width 32
#define schematic_height 32
static char schematic_bits[] = {
   0x00, 0x00, 0x00, 0x00, 0xf0, 0x1f, 0xe0, 0x7f, 0x10, 0x20, 0x20, 0x00,
   0x1e, 0x40, 0x20, 0x00, 0x10, 0x80, 0x20, 0x00, 0x10, 0x80, 0x22, 0x00,
   0x10, 0x80, 0xff, 0x0f, 0x10, 0x80, 0x22, 0x08, 0x10, 0x80, 0x20, 0x08,
   0x1e, 0x40, 0x20, 0x08, 0x10, 0x20, 0x20, 0x08, 0xf0, 0x1f, 0x20, 0x08,
   0x00, 0x00, 0x20, 0x08, 0x00, 0x00, 0x20, 0x08, 0x00, 0x00, 0x20, 0x08,
   0x00, 0x00, 0x20, 0x08, 0xf0, 0x1f, 0x20, 0x08, 0x10, 0x20, 0x20, 0x08,
   0x2e, 0x40, 0x20, 0x08, 0x20, 0x80, 0x20, 0x3e, 0x40, 0x80, 0x22, 0x22,
   0xbe, 0x80, 0x3f, 0x14, 0x40, 0x80, 0x02, 0x14, 0x20, 0x80, 0x00, 0x08,
   0x2e, 0x40, 0x00, 0x08, 0x10, 0x20, 0x00, 0x08, 0xf0, 0x1f, 0x00, 0x08,
   0x00, 0x00, 0x00, 0x08, 0x00, 0x00, 0x00, 0x08, 0x00, 0x00, 0x00, 0x08,
   0x00, 0x00, 0x00, 0x08, 0x00, 0x00, 0x00, 0x00};
