#define checkon_width 16
#define checkon_height 16
static char checkon_bits[] = {
   0x00, 0x00, 0x00, 0x40, 0x00, 0x30, 0xfe, 0x19, 0x02, 0x0c, 0x02, 0x06,
   0x02, 0x03, 0x80, 0x09, 0xc2, 0x09, 0xec, 0x08, 0x7a, 0x08, 0x72, 0x08,
   0x62, 0x08, 0x62, 0x08, 0x02, 0x08, 0xfe, 0x0f};
