#define Ptolemy_width 210
#define Ptolemy_height 256
static char Ptolemy_bits[] = {
 0x00,0x00,0x00,0x00,0x00,0x80,0x04,0x00,0x01,0x00,0x00,0x00,0x94,0x04,0x00,
 0x00,0x00,0x00,0x00,0x00,0x00,0x00,0x00,0x00,0x00,0x00,0xfc,0x00,0x02,0x44,
 0x2a,0x89,0x22,0x80,0x04,0x88,0x4a,0xa1,0x01,0x00,0x00,0x20,0xaa,0x08,0x00,
 0x00,0x00,0x00,0x00,0x00,0x00,0x00,0x00,0xfc,0x24,0x90,0x00,0x00,0x40,0xd8,
 0x36,0x00,0xb8,0x00,0x10,0x04,0x00,0x00,0x00,0x00,0x00,0x00,0x00,0x00,0x00,
 0x00,0x00,0x00,0x00,0x00,0xfc,0x00,0x00,0x29,0x24,0x80,0xa4,0x16,0x89,0xa0,
 0x17,0x54,0x01,0x00,0x24,0x40,0x00,0x00,0x00,0x00,0x00,0x00,0x00,0x00,0x00,
 0x00,0x00,0xfc,0x10,0x44,0x00,0x81,0x00,0xb9,0x51,0xa0,0x1e,0xc0,0xff,0xff,
 0x03,0x41,0x00,0x00,0x00,0x00,0x00,0x00,0x00,0x00,0x00,0x00,0x00,0x00,0xfc,
 0x40,0x00,0x6e,0x56,0x5a,0x04,0x00,0x28,0x40,0xf6,0xfb,0xde,0x06,0x00,0x00,
 0x2a,0x00,0x00,0x00,0x00,0x00,0x00,0x04,0x00,0x00,0x00,0xfc,0x04,0x82,0xa0,
 0x52,0xa1,0x55,0x82,0xd0,0x02,0xfe,0x2b,0x55,0x7f,0x00,0x00,0x00,0x02,0x00,
 0x00,0x00,0x00,0x00,0x20,0x04,0x00,0x00,0xfc,0x40,0x09,0x00,0x54,0xd0,0x4d,
 0x0d,0x82,0x05,0xff,0xd7,0xaa,0x69,0x03,0x00,0x00,0x08,0x01,0x00,0x00,0x00,
 0x40,0x00,0x40,0x00,0x00,0xfc,0x08,0x00,0x00,0xa0,0xab,0xb6,0x26,0x50,0xc5,
 0x5f,0x69,0xb5,0xae,0x0f,0x01,0x00,0x00,0x00,0x00,0x80,0x00,0x00,0x00,0x00,
 0x00,0x00,0xfc,0x20,0x81,0xea,0x09,0x00,0x00,0x40,0x6a,0xe0,0xbf,0x3d,0xab,
 0xaa,0x0d,0x80,0x10,0x01,0x00,0x40,0x00,0x02,0x01,0x00,0x02,0x08,0x02,0xfc,
 0x80,0x90,0x29,0x82,0x00,0x00,0x00,0xad,0xfa,0x7f,0xc5,0xd4,0xda,0x3c,0x00,
 0x04,0x00,0x00,0x00,0x00,0x00,0x00,0x11,0x00,0x00,0x05,0xfc,0x02,0x02,0xca,
 0x12,0x88,0x08,0x01,0xc4,0xfa,0xed,0xaa,0x2a,0x6d,0xfb,0x00,0x00,0x80,0x44,
 0x00,0x00,0x00,0x00,0x20,0x00,0xe0,0x3c,0xfc,0x20,0x00,0x00,0x3d,0x6d,0x02,
 0x90,0xd8,0xff,0x57,0x5b,0x55,0x95,0xd5,0x01,0x00,0x00,0x00,0x01,0x00,0x00,
 0x00,0xc4,0x03,0x20,0x11,0xfc,0x00,0x64,0x25,0x00,0x00,0x69,0x4f,0x02,0xfa,
 0x6f,0xa9,0xaa,0xd4,0xd2,0x03,0xa8,0x04,0x00,0x00,0x06,0x00,0x00,0x12,0x91,
 0x20,0x08,0xfc,0x90,0x10,0x12,0x00,0x00,0x00,0x60,0x25,0xff,0xaf,0x24,0x55,
 0x4b,0xb5,0x14,0x00,0x00,0x00,0x00,0x00,0x00,0x00,0xc8,0x00,0x40,0x0b,0xfc,
 0x41,0x40,0x09,0x41,0x20,0x00,0x04,0xd0,0xff,0xdb,0xaa,0xa4,0x50,0xd6,0x67,
 0x01,0x48,0x00,0x00,0x00,0x00,0x00,0x82,0x00,0x21,0x14,0xfc,0x00,0x00,0xa0,
 0xd4,0x2e,0x01,0x20,0xd2,0xbf,0x7b,0x49,0x49,0xa5,0xad,0x01,0x01,0x00,0x00,
 0x00,0x00,0x00,0x01,0x2e,0x00,0xc0,0x39,0xfc,0x44,0x92,0x40,0x00,0x00,0x90,
 0x8b,0xe5,0xf7,0xa5,0xa5,0x24,0xa2,0xda,0x05,0x14,0x01,0x00,0x08,0x08,0x22,
 0x08,0x89,0x01,0x64,0x22,0xfc,0x00,0x01,0x02,0x08,0x00,0x89,0x14,0xc0,0xbf,
 0xbd,0x24,0x92,0xd0,0xab,0x00,0x1a,0x00,0x00,0x00,0x00,0x00,0x00,0x10,0x00,
 0x00,0x03,0xfc,0x02,0x08,0x00,0x80,0x00,0x04,0x8a,0xfa,0xff,0xd6,0x4a,0xa5,
 0x65,0x20,0x03,0x00,0x00,0x00,0x00,0x00,0x00,0x00,0x00,0x00,0x00,0x00,0xfc,
 0x88,0x44,0x10,0x01,0x0a,0x40,0x51,0xfb,0xeb,0xab,0xaa,0x70,0x30,0x80,0x05,
 0x84,0x00,0x00,0x00,0x00,0x00,0x00,0x00,0x00,0x00,0x00,0xfc,0x00,0x20,0x45,
 0x24,0x90,0xb4,0x04,0xf0,0xff,0x5b,0x09,0xe5,0x1d,0x00,0x95,0x07,0x00,0x00,
 0x00,0x00,0x00,0x00,0x00,0x00,0x00,0x00,0xfc,0x20,0x12,0x00,0x04,0x80,0x40,
 0xae,0xf2,0xff,0xaf,0xa2,0x54,0x80,0x20,0x01,0x00,0x01,0x00,0x00,0x00,0x00,
 0x00,0x00,0x00,0x00,0x00,0xfc,0x01,0x80,0x80,0x40,0x00,0x82,0x00,0xfe,0xff,
 0x55,0x12,0x1c,0x41,0x80,0x18,0x40,0x00,0x00,0x00,0x00,0x00,0x00,0x00,0x00,
 0x00,0x00,0xfc,0x00,0x22,0x08,0x00,0x21,0x10,0x2c,0xf9,0xff,0xaf,0xc9,0x4e,
 0x00,0x00,0xc0,0x05,0x03,0x00,0x00,0x00,0x00,0x00,0x00,0x00,0x00,0x00,0xfc,
 0x08,0x04,0x01,0x00,0x80,0x88,0xca,0xfa,0xff,0x76,0x15,0x26,0x02,0x60,0x00,
 0x4c,0x00,0x00,0x00,0x00,0x00,0x00,0x00,0x00,0x10,0x80,0xfd,0x21,0x51,0x54,
 0x14,0x04,0x20,0x00,0xf8,0xbf,0x9f,0xaa,0xc6,0x01,0xa0,0x00,0x52,0x02,0x00,
 0x00,0x00,0x00,0x00,0x00,0x00,0x00,0xa0,0xfc,0x00,0x20,0x01,0x80,0x00,0x02,
 0x00,0xf8,0xfe,0xbb,0x15,0x23,0x28,0x1c,0x00,0x14,0x00,0x00,0x00,0x00,0x00,
 0x00,0x00,0x00,0x00,0x80,0xfc,0x20,0x49,0x44,0x02,0x48,0x00,0x00,0xf8,0xaf,
 0xdf,0x24,0x23,0x00,0x01,0x00,0x50,0x02,0x00,0x00,0x00,0x00,0x00,0x00,0x00,
 0x00,0x40,0xfd,0x02,0x80,0x10,0x83,0x85,0x20,0x02,0xf8,0xff,0xb7,0xd5,0x10,
 0x40,0x08,0x00,0x60,0x02,0x00,0x00,0x00,0x00,0x00,0x00,0x08,0x00,0x80,0xfc,
 0x08,0x08,0x00,0x00,0x10,0x04,0xa9,0xfa,0xff,0x7f,0xb5,0x10,0x00,0x02,0x00,
 0x80,0x02,0x00,0x00,0x00,0x00,0x00,0x00,0x00,0x00,0xe0,0xfe,0x50,0x02,0x02,
 0x00,0x40,0x92,0x14,0xf9,0xed,0xef,0x5b,0x08,0xb0,0x00,0x00,0xc0,0x04,0x00,
 0x00,0x00,0x00,0x00,0x00,0x00,0x00,0x00,0xfd,0x00,0x50,0x54,0x00,0x00,0x00,
 0x00,0xf8,0xdf,0x7f,0xfd,0x80,0x1e,0x00,0x00,0x80,0x03,0x00,0x00,0x00,0x00,
 0x00,0x00,0x00,0x80,0x00,0xfc,0x00,0x00,0xa8,0x12,0x00,0x20,0x4a,0xf9,0xbf,
 0xbf,0x1f,0xb0,0x03,0x4a,0x02,0x80,0x0a,0x00,0x00,0x00,0x00,0x80,0x08,0x00,
 0x00,0x00,0xfc,0x02,0x05,0x01,0x40,0x03,0x01,0x00,0xf8,0xff,0xf7,0x1d,0xc2,
 0x00,0x00,0x00,0x81,0x03,0x00,0x00,0x00,0x04,0x04,0x40,0x44,0x00,0x00,0xfc,
 0x90,0x75,0x01,0x20,0x00,0x00,0x00,0xe8,0xff,0xdd,0x96,0xd5,0x41,0x00,0x00,
 0x00,0x05,0x00,0x00,0x00,0x40,0x00,0x00,0x00,0x02,0x00,0xfc,0x00,0x4c,0x12,
 0x00,0x04,0x00,0x00,0xf8,0xbf,0x7f,0x67,0xa2,0x38,0x08,0x12,0x00,0x01,0x00,
 0x00,0x00,0x00,0x00,0x00,0x00,0x00,0x00,0xfc,0x48,0x09,0x01,0x00,0x00,0x00,
 0x00,0x78,0xff,0xff,0x9f,0x60,0x91,0x00,0x00,0x00,0x01,0x00,0x00,0x00,0x00,
 0x40,0x00,0x00,0x00,0x00,0xfc,0x00,0x00,0xd0,0x26,0x21,0x40,0x2a,0xd8,0xff,
 0xff,0x17,0xff,0x10,0x00,0x00,0x01,0x01,0x00,0x00,0x00,0x00,0x00,0x00,0x00,
 0x00,0x00,0xfc,0x00,0x00,0x40,0x04,0x04,0x84,0x84,0xf2,0xfb,0xff,0x05,0x6e,
 0x0f,0x01,0x00,0x00,0x06,0x00,0x00,0x00,0x00,0x00,0x00,0x00,0x00,0x00,0xfc,
 0x00,0x10,0x89,0x66,0x10,0x40,0x64,0xf1,0xbf,0xff,0x13,0xc7,0x81,0x00,0x00,
 0x00,0x00,0x00,0x00,0x00,0x00,0x00,0x10,0x00,0x00,0x22,0xfc,0x44,0x00,0x00,
 0x50,0x02,0x00,0x09,0xf6,0xff,0xf7,0x41,0x8f,0x82,0x01,0x00,0xe0,0x03,0x00,
 0x00,0x00,0x00,0x00,0x00,0x01,0x00,0x00,0xfc,0x80,0x55,0x65,0x00,0x40,0x08,
 0x00,0xf0,0xff,0xff,0x00,0xd6,0x87,0x01,0x00,0xf0,0x07,0x00,0x00,0x00,0x00,
 0x00,0x00,0x00,0x00,0x00,0xfc,0x10,0x49,0x05,0x01,0x04,0x00,0x00,0xe0,0xfe,
 0xfd,0x12,0xdf,0x19,0x00,0x80,0x00,0x14,0x00,0x00,0x00,0x00,0x00,0x00,0x00,
 0x00,0x00,0xfc,0x02,0x54,0x16,0x00,0x49,0x02,0x00,0xe0,0xff,0xff,0x3d,0xbf,
 0x0b,0x7c,0x00,0x58,0x07,0x00,0x00,0x00,0x00,0x00,0x00,0x40,0x00,0x08,0xfc,
 0x40,0x00,0xa0,0x4a,0x00,0x08,0x04,0xc0,0xdf,0x7f,0x06,0xb6,0x2d,0xd1,0x17,
 0x3e,0x02,0x00,0x00,0x00,0x00,0x00,0x00,0x00,0x02,0x00,0xfc,0x00,0x00,0x00,
 0x20,0x04,0x40,0x00,0xc0,0xff,0x7e,0x03,0x3e,0xcb,0xb1,0x1d,0x0c,0x07,0x00,
 0x00,0x00,0x00,0x00,0x00,0x00,0x00,0x00,0xfc,0x00,0x81,0x48,0x00,0xaa,0xa0,
 0x52,0xc5,0xff,0xff,0x42,0x3e,0x5e,0xf8,0x7e,0x18,0x05,0x00,0x00,0x00,0x00,
 0x00,0x00,0x00,0x00,0x00,0xfc,0x02,0x08,0x24,0x0a,0x00,0x24,0x86,0xc8,0xff,
 0xdf,0x91,0xde,0x27,0xfc,0x37,0xec,0x3f,0x01,0x00,0x00,0x00,0x00,0x00,0x00,
 0x00,0x00,0xfc,0x80,0x08,0x45,0x05,0x00,0x40,0x30,0xe9,0xff,0xbf,0xff,0x77,
 0x95,0x0e,0x7b,0x1c,0x03,0x00,0x00,0x00,0x00,0x00,0x00,0x00,0x00,0x00,0xfc,
 0x20,0x00,0x20,0x52,0x01,0x00,0x80,0x84,0xff,0xef,0xdd,0xfe,0xd4,0xc7,0xfa,
 0x10,0x07,0x00,0x00,0x00,0x00,0x00,0x00,0x00,0x00,0x10,0xfc,0xc0,0x26,0x1b,
 0x00,0xa8,0x00,0x09,0x80,0xff,0xef,0x52,0xae,0xf1,0xf7,0xf9,0x18,0x04,0x00,
 0x00,0x00,0x00,0x00,0x00,0x00,0x00,0x00,0xfc,0x08,0x94,0xd2,0x09,0x04,0x92,
 0x40,0x84,0xff,0xb7,0x23,0x5c,0xb5,0x73,0xc2,0x30,0x06,0x00,0x00,0x00,0x00,
 0x00,0x80,0x20,0x00,0x00,0xfc,0x01,0xa4,0x08,0x2a,0x40,0xa1,0x08,0x00,0xff,
 0x7f,0x26,0x74,0xf9,0xed,0xc1,0x50,0x0c,0x00,0x00,0x00,0x00,0x00,0x00,0x00,
 0x80,0x00,0xfc,0x90,0x24,0x29,0x80,0x04,0x10,0x55,0x25,0xff,0xaf,0xf7,0xfc,
 0xd5,0xc6,0xe0,0xe1,0x04,0x00,0x00,0x00,0x00,0x00,0x00,0x00,0x00,0x02,0xfc,
 0x00,0x92,0x42,0x14,0x20,0x49,0x00,0x40,0xfe,0xd7,0x6e,0xad,0x7e,0xcf,0x20,
 0xc1,0x08,0x00,0x00,0x00,0x00,0x00,0x00,0x00,0x00,0x00,0xfc,0x04,0x00,0x12,
 0x01,0x00,0x00,0x00,0x80,0xfc,0xbf,0xdd,0xfb,0x11,0x01,0xf2,0x60,0x0a,0x00,
 0x00,0x00,0x00,0x00,0x00,0x00,0x00,0x00,0xfc,0x40,0x88,0x48,0x44,0x80,0x54,
 0x05,0x00,0xfa,0xa7,0x6e,0x71,0x01,0x1a,0x29,0xc0,0x18,0x00,0x00,0x00,0x00,
 0x00,0x00,0x00,0x00,0x00,0xfc,0x00,0xb4,0x2a,0x20,0x00,0x40,0x22,0x00,0xf8,
 0xd3,0xee,0xf2,0x05,0x0e,0x08,0x84,0x12,0x00,0x00,0x00,0x00,0x00,0x00,0x00,
 0x00,0x00,0xfc,0x04,0x46,0x8c,0x25,0x00,0x68,0x0d,0x00,0xf8,0xe7,0x47,0xd1,
 0x00,0x04,0x00,0x01,0x11,0x00,0x00,0x00,0x00,0x00,0x00,0x00,0x00,0x00,0xfc,
 0x40,0xa8,0x69,0x89,0x04,0x00,0xb4,0x02,0xb0,0xa6,0xdf,0xf9,0x01,0x20,0x00,
 0x00,0x0b,0x00,0x00,0x20,0x80,0x00,0x00,0x00,0x00,0x00,0xfc,0x08,0x20,0x21,
 0x00,0x20,0x48,0x4a,0x00,0xe1,0x7b,0xdd,0x5d,0x03,0x00,0x80,0x05,0x0d,0x00,
 0x00,0x00,0x00,0x10,0x00,0x10,0x00,0x00,0xfc,0x40,0x02,0x88,0x20,0x00,0x29,
 0x6d,0x52,0xa2,0xbb,0x7a,0xfe,0x05,0x00,0x70,0x01,0x0a,0x00,0x00,0x00,0x00,
 0x00,0x00,0x00,0x00,0x01,0xfc,0x00,0x08,0x22,0x00,0x00,0x00,0x00,0x04,0xf6,
 0xbb,0xc3,0x5f,0x05,0x00,0x28,0x08,0x06,0x00,0x00,0x00,0x04,0x80,0x00,0x00,
 0x01,0x00,0xfc,0x00,0x40,0x00,0x92,0x49,0x00,0x10,0xd1,0xf5,0x1f,0xd3,0xfd,
 0x16,0x00,0x18,0x04,0x04,0x00,0x00,0x00,0x00,0x20,0x02,0x00,0x44,0x02,0xfc,
 0x10,0x00,0x04,0x44,0x02,0x00,0x00,0x00,0xf2,0xfd,0xce,0xf0,0x3b,0x00,0x18,
 0x07,0x2a,0x00,0x00,0x00,0x00,0x20,0x08,0x00,0x00,0x00,0xfc,0x20,0x49,0x00,
 0x10,0x90,0x00,0x00,0x00,0x7c,0xbf,0xfb,0xc0,0xf5,0x03,0x78,0x0f,0x02,0x00,
 0x00,0x40,0x00,0x60,0x00,0x00,0x00,0x00,0xfc,0x00,0x00,0x40,0x00,0x01,0x04,
 0x00,0x00,0xf4,0x7e,0x6f,0x41,0xff,0x03,0xfc,0xff,0x13,0x00,0x00,0x00,0x80,
 0x60,0x00,0x00,0x00,0x10,0xfc,0x81,0x00,0x2a,0x41,0x00,0x50,0xa9,0xf2,0x7e,
 0xb7,0x7f,0x91,0x7f,0x01,0x8c,0x5e,0x23,0x00,0x00,0x00,0x00,0x60,0x20,0x00,
 0x00,0x01,0xfc,0x00,0x56,0x01,0x00,0x20,0x09,0xd9,0x48,0xff,0xff,0xff,0x46,
 0xff,0x03,0xf6,0xff,0x22,0x00,0x00,0x02,0x00,0x60,0x00,0x20,0x02,0x10,0xfc,
 0x48,0x00,0x02,0x00,0x02,0xa0,0x15,0x6d,0x7f,0xff,0xff,0xcb,0x7c,0x02,0xff,
 0x0f,0x54,0x00,0x00,0x00,0x01,0x40,0x00,0x00,0x10,0x20,0xfc,0x80,0x00,0x20,
 0x00,0x00,0xa1,0x68,0xc4,0xff,0xfe,0x7f,0x4e,0xd4,0x87,0xb7,0x06,0x20,0x00,
 0x00,0x00,0x04,0x60,0x00,0x01,0x00,0x00,0xfc,0x00,0x8c,0x44,0xad,0x02,0x00,
 0x00,0xf0,0xff,0xee,0xbf,0xae,0x60,0xc3,0x81,0x16,0x20,0x00,0x00,0x00,0x80,
 0xc0,0x00,0x00,0x80,0x00,0xfc,0x88,0x00,0x00,0x00,0x44,0x12,0x49,0xfc,0xff,
 0xef,0x37,0xb3,0xd2,0x75,0x10,0x42,0x80,0x00,0x00,0x00,0x20,0x70,0x00,0x00,
 0x00,0x02,0xfd,0x00,0x00,0x00,0x00,0x80,0x22,0x05,0xfe,0xf7,0x6b,0x7d,0x11,
 0x27,0xbb,0xc0,0x73,0x08,0x00,0x00,0x00,0x00,0x50,0x00,0x00,0x02,0x00,0xfc,
 0x00,0x40,0x00,0x40,0x24,0x94,0x90,0xff,0x7f,0xfd,0xff,0x24,0xeb,0x2b,0xac,
 0x7f,0x80,0x00,0x00,0x00,0x00,0x30,0x02,0x02,0x00,0x00,0xfc,0x22,0x92,0x08,
 0x00,0x00,0x00,0xc0,0xde,0xff,0xe5,0xff,0x4d,0xe6,0x2d,0xe5,0xa1,0x84,0x02,
 0x00,0x10,0x00,0x60,0x08,0x48,0x20,0x90,0xfc,0x00,0x00,0x00,0x00,0x00,0x00,
 0xd2,0xbf,0xff,0x7e,0xbf,0x5d,0x7c,0x5b,0xda,0x81,0x18,0x00,0x00,0x40,0x02,
 0x30,0x00,0x00,0x04,0x41,0xfc,0x00,0x00,0x40,0x00,0x80,0xa0,0xe8,0xf7,0xff,
 0xff,0xff,0xfd,0xce,0x6c,0x6d,0xdf,0x05,0x00,0x00,0x09,0x00,0x50,0x0a,0x00,
 0x08,0x10,0xfd,0x44,0x82,0x00,0x00,0x10,0x24,0xf5,0xff,0x6f,0xfd,0xff,0xff,
 0x8d,0x9e,0xee,0xe4,0xa3,0x01,0x00,0x00,0x00,0x70,0x40,0x80,0x00,0x80,0xfc,
 0x00,0x28,0x04,0x08,0x04,0x00,0xa0,0x7f,0x7f,0xff,0xfd,0xf5,0x89,0x9e,0x7f,
 0xff,0x2b,0x01,0x00,0x00,0x00,0x52,0x02,0x00,0x00,0x00,0xfc,0x10,0x00,0x16,
 0xa2,0x80,0x00,0x70,0xff,0xfe,0xfe,0xef,0x3f,0xc2,0x2f,0x7f,0x3f,0x0f,0x81,
 0x40,0x00,0x00,0x38,0x02,0x00,0x00,0x00,0xfc,0x40,0x57,0xa1,0x88,0x54,0x0a,
 0xdc,0x6b,0xf7,0xff,0xdf,0xf7,0x45,0x7f,0x83,0x05,0x51,0x03,0x00,0x00,0x00,
 0x58,0x00,0x02,0x02,0x01,0xfc,0x01,0x48,0x04,0x00,0x00,0x00,0xfe,0xff,0x77,
 0xfe,0xbf,0x3b,0x82,0x5d,0x00,0x00,0x41,0x00,0x00,0x04,0x04,0x38,0x08,0xb9,
 0x05,0x10,0xfd,0x00,0x00,0x40,0x24,0x15,0xa0,0xdf,0xbb,0x77,0xf7,0x7b,0x3f,
 0x48,0xde,0x00,0x00,0x90,0x02,0x00,0x00,0x00,0x18,0x80,0x00,0x1c,0x00,0xfc,
 0x04,0x00,0x10,0x85,0x92,0xc4,0xcf,0xff,0x7f,0xec,0xbd,0xda,0xc7,0xb5,0x00,
 0x00,0x88,0x02,0x00,0x00,0x00,0x30,0xc0,0x40,0x10,0xc0,0xfc,0x90,0x4a,0x04,
 0x00,0x00,0xe0,0xbf,0xbf,0xff,0xda,0xef,0xde,0x7c,0x68,0x00,0x00,0x01,0x01,
 0x00,0x00,0x00,0x58,0x20,0x82,0x20,0x21,0xfc,0x00,0x01,0x64,0x00,0x00,0xfc,
 0xff,0xeb,0xd7,0xb5,0x7f,0x7f,0xfb,0x90,0x04,0x80,0x71,0x00,0x00,0x00,0x00,
 0x38,0x60,0x05,0x03,0x84,0xfe,0x00,0x04,0x1c,0x01,0x00,0xff,0xf7,0xff,0xef,
 0x73,0xbf,0x76,0x06,0x0b,0x8d,0x80,0x20,0x00,0x00,0x00,0x00,0x18,0xa0,0x1c,
 0x43,0x28,0xfc,0x00,0x40,0x8f,0x86,0x02,0xf7,0xff,0x6d,0xf7,0xe7,0x7e,0xf0,
 0x26,0x2e,0x08,0x80,0x00,0x01,0x00,0x00,0x00,0x38,0x10,0x18,0x46,0xa8,0xfc,
 0x44,0x00,0x1c,0x08,0xfc,0xff,0xff,0xf7,0xdf,0x8f,0xbf,0xd4,0x7b,0x24,0x8a,
 0x00,0x8c,0x01,0x04,0x00,0x00,0x30,0x04,0x29,0x04,0x8c,0xfc,0x00,0x04,0x68,
 0x92,0xff,0xef,0xf7,0xbf,0xf6,0x9f,0xf9,0xe0,0x97,0x35,0x00,0xf1,0x61,0x04,
 0x00,0x00,0x10,0x5a,0x28,0x31,0x8c,0x06,0xfd,0x00,0x00,0x38,0xe0,0xff,0xde,
 0xff,0x7f,0xbf,0x1f,0x72,0xe5,0xeb,0x5c,0x10,0x6b,0xcf,0x01,0x00,0x00,0x00,
 0x58,0x20,0x19,0x1c,0x07,0xfc,0x90,0x08,0x70,0xe5,0xd7,0xff,0xf7,0xfd,0xd6,
 0x3f,0xee,0xd5,0xaf,0x35,0x01,0x9c,0xdd,0x03,0x00,0x00,0x00,0x50,0xcc,0x18,
 0x14,0x07,0xfc,0x00,0x00,0x70,0xa5,0xff,0xff,0xf7,0xff,0xef,0x7f,0x8c,0x6b,
 0x6b,0x39,0x81,0x74,0x57,0x03,0x20,0x08,0x24,0x70,0x20,0x38,0x1e,0x35,0xfc,
 0x80,0x00,0xf0,0x88,0xfb,0xeb,0xdf,0xfd,0xf6,0xff,0xb8,0x57,0xef,0xdd,0x94,
 0x5b,0xed,0x00,0x00,0x20,0x00,0x59,0x10,0x38,0xdd,0x7f,0xfc,0x04,0x00,0x60,
 0x95,0xd7,0xfd,0xcf,0xfb,0x9f,0xff,0x71,0x4a,0xff,0x6e,0xee,0x04,0x7e,0x00,
 0x00,0x00,0x00,0x70,0x08,0x18,0x16,0x77,0xfd,0xa0,0xec,0xca,0x80,0x7f,0xfb,
 0xff,0xff,0xd6,0xff,0xe3,0xbc,0xfe,0x7e,0xd9,0x22,0xee,0x10,0x00,0x00,0x00,
 0x74,0x08,0x3c,0x1e,0xd7,0xfe,0x44,0xa2,0xf2,0xd2,0xeb,0xfa,0xef,0xff,0xaf,
 0xff,0x83,0x7f,0xbb,0xef,0xfd,0xbb,0xa4,0x01,0x80,0x00,0x00,0x50,0x0c,0x8a,
 0x0b,0x95,0xfd,0x00,0x54,0xfd,0x05,0xff,0xf5,0xdf,0xba,0xdf,0xff,0x0f,0xf6,
 0xb8,0xbf,0xff,0x6b,0x7e,0x07,0x00,0x80,0x10,0x70,0x1c,0x5b,0x87,0x03,0xff,
 0x00,0x01,0xdf,0x09,0xbe,0xf6,0xfb,0xf7,0xd7,0xff,0x3f,0xd8,0xf3,0xbe,0xca,
 0xf6,0xad,0x5e,0x20,0x04,0x00,0x70,0x02,0x91,0x55,0x06,0xff,0x50,0xaa,0xff,
 0x53,0xfa,0xfe,0xef,0x7f,0xb7,0xff,0xff,0xb0,0xe6,0xbf,0xfb,0x7e,0x3f,0x39,
 0x01,0x00,0x08,0x30,0x06,0xd1,0x96,0x09,0xfd,0x8a,0xc8,0xef,0x07,0x39,0xfd,
 0x6b,0x7c,0xef,0xff,0xff,0xc1,0xfe,0xba,0xfd,0xdd,0xf7,0x64,0x00,0x00,0x80,
 0xf0,0x04,0xa1,0x10,0x18,0xff,0x41,0xf4,0xff,0x4f,0x48,0xfe,0xff,0x7f,0x97,
 0xfb,0xff,0x87,0x9b,0xfd,0xbe,0xf7,0xde,0x92,0x03,0x00,0x00,0xe0,0x02,0x00,
 0x08,0x00,0xfc,0x14,0xf2,0xff,0x16,0xf9,0xfe,0xe7,0x5d,0xd7,0xff,0xfe,0x3f,
 0xdc,0xcb,0xfb,0xeb,0xdf,0xa5,0x02,0x10,0x01,0xa0,0x03,0x00,0x00,0x10,0xfc,
 0x00,0xf9,0xbf,0x4f,0x48,0xfd,0xd7,0xf7,0xef,0xff,0xff,0x3f,0xba,0xff,0xfd,
 0xf7,0x3f,0x17,0x17,0x04,0x24,0xe4,0x05,0x02,0x00,0x88,0xfc,0x00,0xfc,0xbe,
 0x9f,0x76,0xf7,0xf7,0x5a,0xcf,0xff,0xf7,0xff,0xc0,0xf9,0x6e,0x71,0xba,0xaf,
 0x1c,0x00,0x00,0xe0,0x03,0x00,0x80,0x12,0xfc,0x54,0xfe,0xdf,0x2e,0x80,0xfe,
 0x6b,0xbf,0xd5,0x7f,0xdb,0x7f,0x83,0xc4,0x18,0xce,0x6d,0x7c,0x91,0x40,0x40,
 0xe0,0x02,0x00,0x00,0x10,0xfd,0x20,0xff,0xef,0x1b,0x51,0xff,0x77,0x49,0xef,
 0xff,0xff,0x76,0x1e,0x34,0x07,0x95,0xea,0x70,0x29,0x00,0x00,0xe4,0x03,0x00,
 0x00,0x28,0xfc,0xa2,0xff,0xff,0xbf,0xa0,0xdf,0xf3,0xae,0xce,0xff,0xfc,0x97,
 0x7e,0x80,0x80,0x31,0xb4,0xe5,0x65,0x00,0x08,0xc0,0x01,0x00,0x00,0x20,0xfc,
 0x80,0xff,0xff,0x3f,0x25,0xdd,0x6f,0xa9,0xf7,0xbf,0xed,0x0b,0xf6,0xc0,0x00,
 0x21,0x8a,0x8b,0xc3,0x24,0x11,0x42,0x03,0x00,0x00,0xa0,0xfc,0xc0,0xff,0xff,
 0x76,0xda,0xf7,0xfb,0xaf,0xaf,0xdf,0x3e,0x2d,0x9e,0xc7,0xe1,0x4b,0xd1,0xde,
 0x16,0x03,0x40,0xc1,0x0d,0x00,0x00,0x20,0xfc,0xe9,0xff,0x77,0xff,0x48,0xff,
 0xab,0x9c,0xe7,0xff,0xbe,0x95,0x34,0x9e,0xfb,0xa4,0x08,0xb4,0x4e,0x83,0x17,
 0x94,0x03,0x00,0x00,0x80,0xfc,0xe4,0xff,0xfd,0xf5,0x91,0xbf,0x7b,0xfa,0xd3,
 0x5f,0x7f,0x25,0x1e,0xcc,0xc7,0x16,0x22,0x41,0xbb,0x0c,0x80,0x80,0x0f,0x00,
 0x00,0x40,0xfc,0xf8,0xfd,0xff,0xaf,0x06,0xdf,0xf7,0xa5,0xd7,0xf7,0x3e,0x29,
 0x56,0x54,0xa7,0x4a,0x49,0x92,0xbe,0x54,0x00,0xa2,0x2b,0x00,0x00,0x40,0xfd,
 0xf8,0xff,0xbf,0xfe,0x61,0xbb,0x7b,0xd6,0xd3,0xbf,0x9b,0x04,0x16,0x8c,0xaf,
 0x08,0x04,0x20,0x68,0x32,0x00,0x80,0x29,0x00,0x00,0x40,0xfc,0xfa,0xfe,0xfb,
 0xfb,0x15,0xee,0xf7,0xd7,0xeb,0xdf,0x96,0x44,0x16,0xa9,0x07,0xa9,0x90,0x0a,
 0xf9,0x69,0x20,0x04,0x0f,0x00,0x00,0x40,0xfc,0xdd,0xbf,0xfd,0xcd,0x83,0xf6,
 0x7b,0xee,0xcb,0x5f,0xcb,0x00,0x52,0x84,0xd7,0x10,0x0a,0xa0,0xc4,0xd6,0x04,
 0x08,0xb7,0x00,0x00,0x50,0xfd,0xfc,0x7f,0xf7,0xb5,0x2b,0xee,0xcb,0xd5,0xf7,
 0xff,0x2a,0x8a,0x0c,0x94,0x0e,0x91,0x40,0x09,0xf2,0x89,0x00,0x01,0x5f,0x00,
 0x00,0x40,0xfc,0xf4,0xff,0xff,0x5e,0x47,0xf6,0xbb,0xf6,0xd3,0xaf,0xca,0x00,
 0x0a,0xaa,0xa7,0x28,0x49,0x48,0xa1,0xa3,0x03,0x20,0x7c,0x01,0x00,0x60,0xfd,
 0xbc,0xff,0x5f,0xdf,0x17,0xfc,0xed,0xf6,0x63,0xbf,0x0d,0x04,0x2b,0x8a,0x56,
 0x51,0x00,0x02,0x89,0x2f,0x23,0x00,0x9e,0x06,0x08,0x48,0xfc,0xee,0xf6,0xff,
 0xe7,0x4d,0xf5,0xf9,0xd7,0xd7,0xd7,0xd6,0x22,0x95,0x88,0x0a,0xa1,0x54,0x54,
 0x24,0x4d,0x06,0x24,0x6c,0x01,0x10,0xb4,0xfe,0xfa,0xbf,0xfb,0x39,0x8f,0xec,
 0x35,0xed,0xeb,0x5f,0x0b,0x80,0x08,0x0c,0xa6,0x24,0x01,0x01,0x81,0x3c,0x95,
 0x80,0xbc,0x34,0x10,0x38,0xfc,0xfe,0xbf,0xcd,0xec,0x2e,0xf0,0xbd,0xd7,0xe3,
 0xef,0x65,0x0a,0x46,0x26,0x0a,0xa1,0x24,0x52,0x54,0xb6,0x4c,0x00,0xf8,0xdf,
 0x00,0x3a,0xfd,0xf7,0xef,0xff,0x66,0x3d,0xf5,0xf3,0xf6,0xd5,0x5f,0x15,0x20,
 0x15,0x08,0x55,0x92,0x00,0x04,0x01,0xfa,0x1a,0x08,0xe0,0x55,0x44,0xc5,0xfc,
 0xfb,0xff,0x77,0xf4,0xd2,0xe0,0xad,0xf9,0xd9,0xb7,0x45,0x82,0x08,0x4c,0x2a,
 0x89,0x4a,0x51,0x92,0x52,0x31,0x01,0xb2,0x1f,0x1c,0xb8,0xff,0x7f,0x7f,0xef,
 0x6b,0x5d,0xea,0xbb,0x6a,0xd3,0xdf,0x25,0x01,0x24,0x0a,0x89,0x80,0x00,0x04,
 0x48,0xd4,0x2a,0x40,0xeb,0x35,0x02,0x87,0xfe,0xfd,0xff,0x3f,0xff,0x35,0xeb,
 0xba,0xb6,0xe9,0x4b,0x05,0x10,0x85,0x08,0x56,0x24,0x91,0x90,0x20,0xaa,0x6b,
 0x15,0x80,0x7a,0x37,0x00,0xfc,0xef,0xfe,0x9f,0x65,0x7d,0xc9,0x6c,0xdb,0xd1,
 0xb7,0x45,0x42,0x11,0x44,0x8a,0x44,0x04,0x04,0x04,0x51,0xe3,0xa0,0xda,0xfc,
 0x01,0x70,0xff,0xff,0xf7,0xbf,0xb6,0xe2,0x50,0x95,0xb6,0xe8,0xe9,0x06,0x01,
 0x0a,0x0c,0x28,0x12,0x12,0x51,0x89,0xd8,0x96,0x05,0xe0,0xff,0x41,0x5d,0xfd,
 0xfe,0xfd,0xfb,0xbb,0xf4,0x8e,0x5a,0xfd,0xe5,0xc7,0x13,0xc0,0x06,0x24,0x91,
 0x84,0x22,0x02,0x40,0xd2,0x2e,0x23,0xc9,0x0f,0x80,0x07,0xfc,0xef,0xff,0x7f,
 0xd8,0xe2,0x20,0x55,0xb5,0xe8,0xea,0x02,0x05,0x29,0x14,0x18,0x2a,0x8a,0x48,
 0x09,0x51,0x9d,0x09,0xc2,0x19,0xb8,0x03,0xfc,0xde,0xff,0x5b,0x9a,0xe8,0x89,
 0x55,0xfb,0xea,0x67,0xa3,0x80,0x02,0x20,0x94,0x80,0x24,0x22,0x48,0xa8,0x4a,
 0x86,0x70,0x07,0x5f,0x00,0xfc,0xf5,0xef,0xfb,0xb9,0xe0,0x21,0x2b,0xf9,0x60,
 0xd1,0x02,0x90,0x92,0x8c,0x54,0x24,0x88,0x10,0x04,0x25,0x59,0x0d,0xe9,0xea,
 0x01,0x00,0xfc,0xdf,0xff,0xfd,0xda,0xb4,0x05,0xa8,0xdd,0xf4,0x66,0x4b,0x42,
 0x06,0x30,0x94,0x08,0x12,0x44,0x51,0xa0,0x7d,0x2a,0xe1,0xfb,0x03,0x00,0xfc,
 0x6e,0xff,0xcf,0xbb,0xd2,0x93,0xac,0xbe,0xf9,0xd1,0x02,0x81,0x02,0x0c,0x34,
 0xa2,0x80,0x20,0x44,0xca,0x6a,0x2d,0x74,0x3d,0x00,0x00,0xfc,0xff,0xf5,0xff,
 0x9f,0x31,0x03,0xa8,0x99,0x70,0x75,0x13,0x88,0x26,0xaa,0x50,0x48,0x54,0x84,
 0x09,0x21,0x65,0x28,0xf1,0xff,0x32,0x00,0xfc,0xfe,0xef,0xbf,0xb9,0x70,0xa7,
 0x42,0x4e,0x7a,0x51,0x85,0x80,0x04,0x28,0x29,0x11,0x22,0x12,0xa2,0xc8,0xba,
 0x15,0xb0,0xef,0x0f,0x25,0xfc,0xff,0xff,0xfd,0x8f,0x32,0x0f,0x4c,0x57,0xf4,
 0xe2,0x42,0x41,0x82,0x54,0x48,0x44,0x81,0x88,0x0a,0x02,0xdd,0xd3,0xde,0xfd,
 0xf7,0x05,0xfc,0x6b,0xff,0x27,0x76,0x11,0x4d,0xa2,0xdc,0xda,0x7a,0x13,0x24,
 0x13,0x28,0x6a,0x28,0x40,0xa0,0xa2,0xa8,0xa6,0x29,0xf1,0x5f,0x9f,0x03,0xfc,
 0xff,0xf7,0xb5,0x1f,0xd8,0x0e,0x48,0x6d,0x7c,0x88,0x82,0x80,0x05,0x20,0x48,
 0x42,0x25,0x0a,0x0a,0x82,0x52,0xb7,0x78,0xf7,0x3f,0x00,0xfc,0x6b,0xff,0xff,
 0xb7,0x3a,0x5f,0x51,0x47,0x78,0xe5,0xa0,0x40,0x42,0x2c,0xd8,0x20,0x40,0xa5,
 0x4a,0x50,0xad,0xeb,0x7a,0xef,0x05,0x00,0xfc,0xdf,0xff,0xbe,0x7e,0x98,0x9e,
 0x95,0x6e,0x7e,0x51,0x85,0x04,0x17,0x50,0x50,0x28,0x09,0x50,0x58,0x0a,0xd2,
 0x56,0xd5,0x3d,0x00,0x00,0xfc,0x7e,0xf5,0x1f,0xd7,0x14,0xbe,0x58,0x27,0x79,
 0xba,0x02,0x40,0x01,0x10,0x90,0x82,0x20,0x05,0x96,0x50,0x4b,0xcd,0xf3,0xdb,
 0x2a,0x00,0xfc,0xdd,0xff,0x72,0xeb,0x74,0x7b,0xd7,0x3d,0xba,0x50,0x41,0x88,
 0x92,0x54,0x91,0x24,0x09,0x48,0x19,0x82,0xf4,0xbb,0xe9,0x5f,0x15,0x00,0xfc,
 0x7d,0xdb,0x61,0xff,0x9c,0x3d,0x02,0xb7,0x36,0xb4,0x12,0x82,0x06,0x10,0xa4,
 0x40,0xa2,0x22,0x94,0x28,0x4a,0x8c,0xf6,0xff,0x36,0x2a,0xfc,0xff,0xfd,0x0b,
 0x65,0xaf,0xff,0x92,0x53,0xae,0xba,0x80,0xa0,0x02,0x58,0x30,0x93,0x04,0x88,
 0x52,0x84,0xd4,0xbb,0xd9,0xff,0xbf,0xcf,0xff,0xf7,0xbe,0x76,0xbb,0x4e,0x76,
 0xc4,0x1a,0x5d,0xb4,0x12,0x40,0x11,0x41,0xa0,0x04,0x24,0x21,0xa9,0x22,0xa9,
 0x36,0x6b,0xff,0xff,0xad,0xfe,0xef,0xed,0x7f,0x7b,0x6f,0x67,0xa1,0x5d,0x3d,
 0x51,0x41,0x04,0x05,0x90,0x20,0x51,0x91,0x44,0x34,0x48,0xa4,0x5c,0xf5,0xff,
 0xff,0x6f,0xfc,0xbe,0x7f,0xaf,0x3b,0x9f,0xdb,0x84,0x2b,0x37,0x96,0x04,0x40,
 0x23,0x14,0x50,0x01,0x04,0x10,0xd4,0x04,0x5a,0x63,0xeb,0xff,0xff,0x53,0xfc,
 0xf5,0xfd,0x7a,0x5f,0x5f,0xcf,0x11,0x89,0xaf,0xd4,0x82,0x90,0x02,0x80,0x60,
 0x09,0x91,0x42,0x69,0x28,0x49,0x6d,0xf7,0xff,0x44,0x0c,0xfc,0xfe,0xdd,0x35,
 0x3b,0xff,0x85,0x03,0xd4,0x3b,0x36,0x11,0x40,0x89,0xa8,0x60,0xa0,0x24,0x10,
 0x54,0x8a,0x64,0xf6,0xf6,0xfd,0x10,0x00,0xfc,0xeb,0x3e,0xca,0x7b,0xeb,0xaf,
 0xaa,0x0e,0xb7,0xd4,0x02,0x01,0x13,0xa0,0x42,0x06,0x48,0x45,0x69,0x29,0x59,
 0xfd,0xda,0x3f,0x03,0x00,0xfc,0xba,0x73,0x8b,0xfb,0xdf,0x89,0x03,0x80,0x1b,
 0x2a,0x84,0x04,0x01,0x90,0x48,0xa2,0x04,0x20,0x74,0x2c,0x84,0xea,0xfe,0x7f,
 0x14,0x01,0xfc,0xdd,0xdd,0xd7,0x24,0xf7,0x26,0x07,0xd4,0x0b,0x54,0x01,0x40,
 0x42,0x80,0xc0,0x12,0xa8,0x0a,0x65,0x99,0xb2,0xac,0xfd,0xef,0x03,0x00,0xfc,
 0xbb,0xfb,0xdf,0xd6,0x7f,0x83,0x26,0xa2,0xbf,0xb2,0x12,0x40,0x0b,0x51,0x00,
 0x81,0x04,0x80,0xd0,0xac,0x08,0x92,0xdf,0x3f,0x05,0x00,0xfc,0x7a,0x37,0xd6,
 0xea,0xff,0xcb,0x0e,0x94,0x19,0xd6,0x02,0x04,0x01,0x80,0x92,0x2c,0xa0,0x2a,
 0xd4,0x28,0x49,0xa8,0xfb,0x7f,0x00,0x00,0xfc,0x6b,0xfc,0xb6,0xd9,0xf6,0xe1,
 0x4d,0xc8,0x55,0xaa,0x82,0x40,0x25,0xd0,0x80,0x81,0x0a,0x80,0xaa,0x34,0x04,
 0x25,0xfd,0xff,0x05,0x10,0xfc,0x7a,0xb5,0xe5,0xd2,0xfd,0xa5,0x1e,0xd1,0x0e,
 0x35,0x11,0x00,0x12,0x24,0x41,0x2b,0xa0,0x2a,0xe8,0x1a,0xf9,0xff,0xfb,0xff,
 0x5f,0x4a,0xfc,0xff,0xfd,0xeb,0xcd,0xfb,0xe3,0x36,0xe0,0x2d,0xcc,0x8a,0x48,
 0x0a,0x30,0x05,0x19,0x4a,0x00,0xe9,0x6c,0x5c,0x4a,0xf6,0xff,0xdb,0x2a,0xfc,
 0xb6,0xbe,0x6d,0xe6,0x7a,0xab,0x2f,0xe9,0x9c,0x6a,0x03,0x00,0x05,0xa0,0x22,
 0x41,0x40,0x52,0xa8,0x10,0x54,0x40,0xff,0xff,0x3f,0x82,0xfd,0xb5,0x96,0xea,
 0xf3,0xbf,0xd5,0x3a,0xc4,0x0e,0x8d,0x14,0x90,0x94,0xa0,0x02,0x15,0x12,0x01,
 0xea,0x2d,0x2a,0x00,0xfe,0xff,0xff,0x7f,0xfc,0xfe,0x5a,0xf5,0xe8,0xfe,0xea,
 0xb1,0xc2,0x2a,0xf2,0x02,0x02,0x02,0x42,0x01,0x93,0x80,0xa8,0xd4,0x2c,0x07,
 0x09,0xf6,0x67,0xfd,0xcf,0xfd,0xbd,0xfb,0xb7,0xe5,0xfa,0xad,0x53,0xb4,0x4a,
 0x2a,0x48,0x40,0x15,0x50,0x0a,0x26,0x49,0x12,0xea,0x96,0x02,0x00,0xff,0x1f,
 0x04,0x04,0xfc,0x57,0xac,0x76,0xf3,0xde,0xfe,0x78,0xad,0x0c,0xd2,0x02,0x00,
 0x02,0x90,0x42,0x52,0x90,0x8a,0xb4,0xad,0x52,0x21,0xfe,0xff,0x00,0x00,0xfc,
 0xfa,0xdd,0xf1,0x61,0xbe,0x7d,0x4a,0x80,0x54,0x36,0x15,0xa2,0x26,0x50,0x02,
 0x26,0x22,0x25,0xea,0xd6,0x02,0x04,0xff,0xff,0x03,0x00,0xfc,0xdd,0xfb,0xf7,
 0xb4,0x6d,0x6f,0xd0,0x66,0x07,0x55,0x01,0x08,0x0b,0x20,0x0a,0x4a,0x40,0x14,
 0xe9,0xca,0x08,0x00,0xfb,0xff,0x5f,0x00,0xfc,0x1b,0xdb,0xda,0xb4,0x9f,0x3e,
 0xc5,0x31,0x55,0x92,0x89,0x40,0x05,0x82,0xa2,0xa8,0x0a,0x55,0xb5,0x4f,0x41,
 0x11,0xbf,0x7f,0x01,0x00,0xfc,0xdf,0x6e,0x77,0xda,0x4e,0x1f,0xa4,0x81,0x17,
 0x74,0x14,0x00,0x96,0x40,0x02,0x8c,0x20,0x08,0xd5,0x67,0x14,0x84,0xfd,0xff,
 0x02,0x00,0xfc,0x5b,0x6d,0x35,0x3b,0x8f,0x5f,0xc1,0x13,0x44,0x16,0x0b,0x80,
 0x04,0x48,0x05,0x99,0x42,0xb5,0xca,0x77,0x41,0xe8,0xf7,0xff,0x3d,0x00,0xfc,
 0x3f,0x6f,0xb3,0xd8,0xe7,0x17,0xe9,0x07,0x0c,0x52,0x09,0x51,0x26,0x00,0x05,
 0x18,0x14,0x58,0xba,0x33,0x88,0xc1,0xff,0xbf,0xfb,0x6b,0xfc,0x7b,0xbd,0x1a,
 0xb5,0xc3,0x97,0xd0,0x27,0x20,0x55,0x25,0x80,0x0a,0x82,0x12,0x90,0x41,0x4a,
 0xeb,0x5f,0x22,0xc4,0xff,0xd6,0xaf,0x7f,0xfd,0x7d,0x4c,0xad,0xea,0x71,0xf5,
 0x60,0x07,0x08,0x14,0x05,0x82,0x34,0x10,0x89,0x54,0x92,0xf0,0xd4,0x0b,0x08,
 0xe8,0x77,0xa7,0x2a,0x00,0xfc,0xcf,0x36,0xb3,0xee,0xe5,0xa5,0xea,0x97,0x90,
 0xb2,0x48,0x40,0x92,0x40,0x04,0x30,0x45,0x92,0xf6,0x57,0x45,0xf4,0xdf,0x96,
 0x08,0x09,0xfc,0xab,0x56,0x5d,0xb4,0xd9,0x64,0xf5,0x0f,0x0a,0x15,0x07,0x04,
 0x1d,0x08,0x4a,0x70,0x10,0xa0,0xe9,0x05,0x92,0x7f,0xbf,0x01,0x00,0x00,0xfc,
 0xbf,0x5f,0xad,0xf3,0x70,0x92,0xf6,0x2e,0x20,0x12,0x50,0x00,0x14,0x80,0x04,
 0x41,0x85,0xaa,0xaf,0x8d,0xb9,0x7f,0xff,0x05,0x00,0x00,0xfc,0x55,0xb7,0x55,
 0x66,0x3a,0x20,0xff,0x1f,0x10,0xb5,0x0b,0x10,0x2a,0x42,0x15,0x70,0x32,0x81,
 0xf4,0xc2,0xea,0xff,0xfe,0x0b,0x00,0x00,0xfc,0xeb,0xdc,0xae,0x7a,0x3d,0x88,
 0x7d,0x37,0x51,0x14,0x24,0x81,0x1a,0x80,0x08,0xc1,0x08,0xd4,0xdf,0xc9,0x78,
 0x7f,0xfb,0x03,0x00,0x00,0xfc,0xde,0x65,0x4e,0x55,0x0e,0x92,0xfd,0x3f,0x20,
 0x8a,0x42,0x84,0x5a,0x00,0x15,0xd0,0x54,0x01,0xd9,0x06,0xfb,0xf7,0xfb,0x1f,
 0x00,0x00,0xfc,0xf6,0xee,0xaa,0x1b,0x0f,0x50,0xfe,0x7f,0x02,0x36,0x14,0x10,
 0x1c,0x08,0x4a,0x84,0x05,0x94,0xfe,0x9e,0xfd,0xf5,0x67,0x75,0x00,0x00,0xfc,
 0x9b,0xbb,0xab,0x5f,0x03,0x50,0x7f,0x7f,0x50,0xa4,0xa2,0x02,0x72,0x41,0x14,
 0x41,0xad,0x00,0xf7,0x3b,0xff,0xf6,0xff,0xd5,0x02,0x00,0xfc,0x76,0x7f,0x57,
 0x8f,0x81,0x40,0xff,0x7e,0x01,0x25,0x14,0x40,0x0c,0x80,0x12,0x84,0x09,0x54,
 0xda,0x4b,0x7d,0xff,0x6f,0xfd,0x15,0x00,0xfc,0xbb,0x7e,0xdb,0xef,0x00,0xf0,
 0xff,0xff,0xa4,0xaa,0x4a,0x04,0x32,0x04,0x69,0x20,0xa2,0x00,0xb4,0xd7,0xff,
 0xf5,0x7e,0x28,0xf2,0x02,0xfc,0x57,0xfe,0xcd,0x73,0x08,0xd1,0x7f,0xff,0x00,
 0x64,0xa4,0x00,0x5a,0x00,0x24,0x40,0x13,0x95,0x5a,0x9b,0xbe,0xf7,0xff,0x41,
 0x92,0x07,0xfc,0xff,0xbc,0xe7,0x19,0x02,0xe4,0xff,0xfe,0x01,0x49,0x1a,0x22,
 0x4a,0x01,0x34,0x04,0x26,0x20,0xe8,0xaf,0xff,0xff,0xfb,0x01,0x00,0x28,0xfd,
 0xcf,0xd7,0xf9,0x8d,0x20,0xe0,0xbf,0xf7,0x4b,0x6c,0x8a,0x04,0x3a,0x08,0x48,
 0x81,0x92,0x04,0xb5,0xbf,0x5f,0xfb,0xef,0x03,0x00,0x08,0xfc,0xbf,0x5f,0x85,
 0x06,0x08,0xe4,0xff,0xff,0x13,0x66,0x54,0x10,0x48,0x00,0x55,0x08,0x2e,0x48,
 0x68,0xef,0x7f,0xff,0x8f,0x0f,0x00,0x00,0xfc,0xef,0xbe,0x13,0x74,0x00,0xf4,
 0xff,0xfd,0xa3,0x69,0x4d,0x01,0x6a,0x24,0xa8,0x20,0x2d,0x20,0xc4,0xff,0xaf,
 0xfb,0x7f,0x3e,0x00,0x00,0xfc,0xd7,0xff,0x42,0x94,0x48,0xfd,0xff,0xef,0x0f,
 0xd4,0xa4,0x44,0x48,0x01,0xb4,0x85,0x8c,0x84,0xf0,0xff,0xf7,0xef,0xff,0x7b,
 0x00,0x00,0xfc,0xba,0xdf,0x17,0x55,0x03,0xf0,0x7f,0x7f,0x27,0x49,0x19,0x00,
 0x74,0x00,0xc8,0x00,0x7d,0x00,0xda,0xfe,0xdf,0xfb,0x5f,0xb5,0x02,0x00,0xfc,
 0xed,0x55,0x47,0x38,0x32,0xf9,0xff,0x7e,0x8f,0xaa,0x6c,0x05,0xa0,0x81,0x64,
 0x11,0x56,0x29,0xe0,0xff,0xef,0xef,0xff,0xe2,0x0f,0x00,0xfc,0xd7,0x6f,0x16,
 0x6d,0x84,0xf6,0xfb,0xf7,0x6a,0x50,0x21,0x51,0xd4,0x0a,0xa8,0x41,0x98,0x40,
 0xd9,0xff,0xef,0xbb,0xe7,0x87,0x36,0x00,0xfc,0xef,0xef,0x4f,0xd8,0x41,0xf4,
 0x6f,0x7d,0x0d,0x96,0x54,0x02,0x50,0x01,0x50,0x15,0xb2,0x8a,0xa4,0xfe,0xff,
 0xb7,0xff,0x17,0xf6,0x03,0xfc,0xfe,0xbf,0x19,0x72,0x12,0x89,0xbf,0xf7,0x2d,
 0xd0,0xab,0x04,0xa1,0x21,0x88,0x41,0x70,0x11,0xb2,0xff,0xff,0xf5,0xff,0x19,
 0x30,0x6f,0xfc,0xeb,0xf9,0x75,0x99,0x41,0x50,0x5c,0xbf,0x9a,0x60,0x50,0x09,
 0xc8,0x04,0x51,0x03,0xaa,0x44,0xd8,0xfe,0xef,0xef,0xfd,0x3a,0x42,0x3d,0xff,
 0xed,0x7f,0xf0,0x6f,0x09,0x05,0x82,0xbf,0x3a,0xc0,0xa5,0x04,0x34,0x03,0x50,
 0x95,0x60,0x89,0x26,0xef,0xd7,0x5f,0x5f,0x5c,0x40,0x48,0xfd,0xd3,0x57,0xd5,
 0xdf,0xa2,0xa0,0x48,0xf8,0x72,0x8a,0x91,0x8a,0x88,0x17,0x90,0x0e,0x62,0x02,
 0x68,0xff,0xeb,0x7f,0xbf,0xac,0x20,0x04,0xfc,0xdf,0x0f,0x00,0x58,0x1e,0x15,
 0x02,0xc2,0x6c,0x01,0x6b,0x2d,0xa0,0x02,0x81,0x95,0xc0,0x52,0x2a,0xfb,0xf7,
 0x7f,0xbf,0xd5,0x00,0x00,0xfc,0xe9,0xdf,0x65,0x62,0x7e,0xa0,0x90,0x90,0xa2,
 0xa8,0x23,0x88,0xf0,0x46,0x50,0x0e,0xe9,0x0a,0xfa,0xee,0xef,0xff,0xbd,0xee,
 0x03,0x20,0xfd,0xeb,0x16,0x29,0xc8,0xb2,0x0b,0x0a,0x02,0x35,0x0a,0xd5,0x15,
 0x84,0x05,0x20,0x2f,0x00,0xa5,0x54,0xfd,0xb7,0xff,0x37,0xdf,0x1f,0x00,0xfd,
 0xd7,0x7b,0x16,0x01,0xf4,0x7f,0xa1,0x48,0x66,0x40,0xa1,0x52,0x50,0x03,0x44,
 0x9d,0x92,0x09,0xa2,0xfd,0xff,0xdf,0xbe,0xfe,0x1e,0x00,0xfd,0xff,0x4b,0x6d,
 0xac,0xfc,0xfd,0x0b,0x02,0xcc,0x01,0x4e,0x13,0xa1,0x0f,0x90,0x16,0x40,0x89,
 0x38,0xf5,0xff,0xff,0xfc,0xe8,0xf3,0x00,0xfc,0xd7,0x6f,0x1a,0x1b,0xfe,0xef,
 0x97,0xa8,0xa4,0x28,0xa0,0x55,0x44,0x8a,0x40,0x5a,0x02,0x55,0xc6,0xfe,0xbb,
 0xff,0xfb,0xfc,0x93,0x00,0xfc,0xff,0xb4,0x6f,0xa4,0xfd,0x7f,0x7f,0x82,0xc8,
 0x00,0x96,0x16,0x00,0x05,0x40,0x7d,0x88,0x96,0x6a,0x65,0xbf,0xdf,0xf9,0xc3,
 0xff,0x03,0xfc,0xfb,0x82,0x1d,0xd3,0xff,0xff,0xff,0x27,0x54,0x93,0x70,0x55,
 0x49,0x14,0x84,0x16,0x02,0x0a,0x6a,0xf5,0xff,0xff,0xf2,0xd7,0xfe,0x01,0xfd,
 0x7f,0x5d,0xa6,0xdc,0xfe,0xff,0xef,0x7e,0xb9,0x01,0x44,0x5b,0x80,0x2e,0x40,
 0xbd,0x28,0x33,0x55,0xeb,0xa5,0xbd,0xe7,0xa7,0xfb,0x7f,0xff,0x3f,0xc1,0x97,
 0x62,0xe7,0xff,0xb7,0xff,0x32,0x4b,0x10,0xcd,0x22,0x8b,0x88,0x5e,0x80,0xa4,
 0x54,0xf7,0xdf,0x5f,0xeb,0x9f,0xf6,0xee,0xff,0x3e,0x00,0x45,0xd4,0xef,0x5f,
 0xff,0xf5,0x7f,0x03,0x85,0x62,0x88,0x0d,0x00,0x7d,0x25,0xcc,0xaa,0x99,0x6f,
 0xff,0xc7,0x37,0xfd,0x7d,0xff,0x9f,0x12,0x01,0xe9,0xa3,0xfd,0x9e,0xdb,0xd7,
 0x06,0x50,0x08,0x23,0x2d,0x88,0xfa,0x84,0xba,0xb1,0xeb,0xff,0x3f,0x5f,0xff,
 0x6c,0x77,0xfd,0x15,0xc0,0x02,0xc4,0x51,0x90,0x5f,0x7e,0x2b,0xfa,0x20,0x22,
 0x88,0x14,0x81,0xfc,0x21,0xf4,0xa6,0xce,0xcf,0xfa,0x3d,0xfe,0x0f,0xaa,0xfc,
 0x57,0x12,0x11,0x60,0x39,0x14,0xb6,0xf3,0x55,0x0e,0x93,0x04,0x21,0x3b,0x88,
 0xfb,0x80,0xb0,0xd9,0xb7,0x7d,0xff,0x5a,0xff,0x9f,0x00,0xff,0x2e,0xc0,0x40,
 0xf2,0x08,0xc4,0xfd,0xd9,0x57,0xfa,0x0c,0x51,0x00,0x30,0x80,0xee,0x15,0xb2,
 0x2b,0xa9,0xff,0xfd,0xfd,0xf9,0xff,0xff,0xff,0x0b,0xa5,0x04,0x74,0x15,0x32,
 0x40,0xaf,0x2b,0x31,0xd3,0x07,0x12,0x89,0x85,0xfa,0x87,0xf0,0xab,0x67,0xfe,
 0xff,0xf7,0xf5,0xff,0xff,0xff,0x0f,0xe0,0x80,0x78,0x0c,0x11,0x00,0xb8,0x9f,
 0x74,0xf4,0xbe,0x40,0xa0,0x16,0xfc,0x03,0x74,0x57,0xae,0xfd,0xfd,0xdd,0xcb,
 0xfd,0xff,0xff,0x52,0x92,0x10,0x72,0x07,0x11,0x00,0x00,0x5a,0x75,0x80,0xfc,
 0x0a,0x05,0x95,0xa9,0x5f,0xf1,0x2b,0x47,0xf5,0xae,0xf7,0xdf,0xff,0xff,0xff,
 0x0f,0x60,0x02,0x3c,0x12,0x18,0x00,0x00,0xb0,0xe8,0x88,0xf7,0x47,0x10,0x05,
 0xfe,0x1f,0xe4,0x9d,0xb9,0xfe,0xfd,0xff,0xb7,0xfc,0xff,0xff,0x92,0xa2,0x40,
 0xb6,0x02,0x38,0x00,0x00,0x80,0xe5,0x02,0xa8,0xbd,0x44,0x4e,0xa8,0x5f,0xf0,
 0x57,0x15,0xf3,0x77,0xd3,0xff,0xf7,0xff,0xff,0x4d,0xb0,0x24,0x1e,0x81,0x54,
 0x01,0x00,0x00,0xd6,0x20,0xeb,0xfb,0x17,0x3a,0xd5,0xbf,0xe2,0x5e,0x7b,0xf4,
 0xff,0x3f,0xdf,0xdf,0xff,0xfd,0x11,0xf5,0x00,0x1b,0x81,0xfc,0x02,0x00,0x00,
 0xd0,0x09,0x74,0x47,0xbd,0x54,0x68,0x7f,0xd0,0x77,0xb5,0xe6,0x5f,0xff,0xff,
 0x7e,0xff,0xfc,0x44,0xa0,0x10,0x5a,0x41,0xbc,0x05,0x82,0x00,0x90,0xa3,0xfe,
 0xaf,0xfd,0x2c,0xe5,0x7f,0xe2,0xbf,0x1c,0xfd,0xff,0xdf,0xfd,0xff,0xff,0xfc,
 0x45,0x51,0x20,0x1b,0x08,0x06,0x0c,0x10,0x04,0x00,0x09,0xea,0x56,0xa8,0xaf,
 0xd0,0xff,0xe4,0xde,0xba,0xde,0xef,0xff,0xfb,0xfb,0x7d,0xfc,0x55,0xb1,0x82,
 0x08,0x00,0x0a,0x00,0x00,0x00,0x00,0x82,0xa8,0x9b,0x72,0xf5,0x0a,0xfe,0xd1,
 0xdf,0x52,0xad,0xff,0xff,0xfe,0xff,0x7f,0xfc,0x86,0x48,0x88,0xad,0x44,0x8e,
 0x01,0x00,0x20,0x03,0x60,0xea,0x77,0xd2,0xeb,0x7f,0xff,0xc4,0x77,0xed,0xbe,
 0xff,0xff,0xbb,0xdf,0x1b,0xfc,0x8b,0xf2,0x20,0x1d,0x10,0x0a,0x01,0x00,0x00,
 0x02,0x40,0xf9,0x3f,0xe9,0xa2,0x7a,0xfe,0xf1,0xde,0xd3,0x5a,0xff,0xff,0xff,
 0xff,0x0f,0xfc,0x54,0x61,0x80,0x0d,0x04,0x06,0x04,0x00,0x04,0x1c,0x80,0x24,
 0xef,0x94,0x8b,0xad,0xff,0x60,0xff,0xea,0xfd,0xff,0xff,0xff,0xff,0x07,0xfc,
 0xc5,0x30,0x92,0x4e,0x26,0x3f,0x10,0x40,0x00,0x40,0x00,0xf0,0xfd,0x77,0x03,
 0xf5,0x7d,0xca,0x75,0xad,0xff,0xfe,0xff,0xdb,0xff,0x00,0xfc,0x47,0xf3,0x80,
 0x1e,0x84,0xae,0x00,0x00,0x10,0xa0,0x0b,0x82,0x7f,0xc1,0xa6,0x1e,0x77,0xe1,
 0xee,0xd6,0x7a,0xff,0xf7,0xbf,0xbd,0x94,0xfc,0xaa,0xb9,0xd4,0x0e,0x16,0x7f,
 0x52,0x00,0x00,0xc0,0x7d,0xb0,0xff,0xbd,0xdb,0xf7,0xbc,0xd4,0xff,0xeb,0xef,
 0xfe,0xff,0x7f,0xcf,0x00,0xfc,0xa7,0xd1,0xc0,0x4f,0x9e,0x1d,0x00,0x08,0x00,
 0x80,0x61,0xc1,0xea,0xd5,0xaf,0x5f,0x3f,0xe0,0xfd,0x57,0xff,0xfe,0xff,0xff,
 0x91,0x03,0xfc,0x46,0x6b,0xa5,0x1e,0x5c,0x7b,0x00,0x80,0x20,0x00,0xbf,0x87,
 0xbf,0x6b,0xd7,0xef,0x5e,0xb1,0xfb,0xcf,0xdb,0xfe,0xff,0xff,0x4b,0x01,0xfc,
 0xa6,0xba,0xe8,0xae,0x1e,0xee,0x0b,0x01,0xc0,0x01,0xec,0x8e,0x78,0xd7,0x5d,
 0xf7,0x0f,0x60,0xad,0xb7,0xdd,0xf9,0xdf,0xff,0x27,0x07,0xfc,0xa7,0x71,0xaf,
 0xae,0xbe,0xff,0x17,0x00,0x80,0x01,0x7e,0x1b,0x5c,0xef,0xa7,0x5d,0x17,0xe9,
 0xba,0x57,0xef,0xff,0x7f,0xff,0x15,0x01,0xfc,0x4b,0xb7,0xeb,0xde,0x5e,0xae,
 0x1f,0x00,0x14,0x04,0xfc,0x3f,0xe0,0x1d,0xdd,0xf7,0x29,0xd8,0xff,0xaf,0xfd,
 0xf5,0xdb,0xff,0x47,0x02,0xfc,0x15,0xb9,0xf7,0xfe,0x3d,0xff,0x7f,0x08,0x40,
 0x08,0xd0,0xff,0x78,0xaf,0x4e,0xef,0x0f,0x72,0x75,0xff,0xfe,0xfb,0xff,0xff,
 0x05,0x07,0xfc,0x42,0xb3,0xeb,0xde,0xff,0xde,0xde,0x02,0x00,0x31,0xe0,0xfc,
 0xe9,0x96,0xaa,0xfd,0x81,0xa8,0xac,0xbd,0xbe,0xf9,0x7f,0xff,0x8b,0x24,0xfc,
 0x97,0xda,0xeb,0xfe,0xbe,0xea,0x7d,0x2b,0x04,0xd8,0xc0,0xe1,0x93,0x3f,0xd1,
 0xf7,0x12,0x78,0xf2,0xff,0x7d,0xfb,0xff,0xff,0x07,0x06,0xfc,0x1d,0x52,0xef,
 0xff,0xbd,0xee,0xfb,0xe0,0x18,0xf0,0x43,0x83,0xa7,0x75,0x64,0x6f,0x43,0xae,
 0xec,0xfe,0xda,0xfe,0xff,0xff,0x1b,0x05,0xfc,0x95,0xee,0xf7,0xfe,0xbe,0xfe,
 0xcf,0x02,0x70,0x40,0xc5,0x73,0xbf,0x7f,0x90,0x7f,0x01,0xfe,0x7e,0xff,0xfb,
 0xff,0xff,0xbf,0x07,0x05,0xfc,0x57,0xb5,0xef,0xf5,0x7f,0xff,0xbf,0x0f,0x00,
 0x00,0xed,0x03,0xf1,0xee,0xc4,0xbe,0x54,0x1f,0xbb,0xed,0xfd,0xff,0xdf,0xff,
 0x5b,0x10,0xfc,0x6f,0xe8,0xdf,0x7d,0x7f,0xff,0x7f,0x7f,0x01,0x00,0xfe,0xa7,
 0x06,0xbc,0xb2,0xff,0x80,0x01,0xb4,0x7e,0xfb,0xff,0xff,0xff,0x0f,0x05,0xfc,
 0xb9,0xb2,0xef,0xfb,0xdb,0xf7,0xff,0xfd,0x00,0x00,0xfc,0xae,0x2a,0xf0,0xe9,
 0x7f,0x55,0x65,0x78,0xf5,0xfc,0xff,0xdf,0xff,0x1f,0x0c,0xfc,0x96,0xc4,0xbf,
 0xf9,0xff,0xff,0xe3,0x87,0x06,0x09,0xf8,0xce,0x9b,0x68,0xd3,0x9f,0x60,0xf8,
 0x25,0x2b,0xfd,0xff,0xff,0xff,0x8f,0x08,0xfc,0xed,0x22,0xdf,0xff,0xff,0xfe,
 0xbe,0x3f,0x0f,0x26,0xe0,0x1f,0xf6,0xe5,0x63,0x3f,0x8a,0xfe,0x99,0xcf,0x7f,
 0xff,0xff,0xff,0x3d,0x0c,0xfc,0x93,0x96,0xfe,0xfb,0xff,0x7f,0xb7,0xf2,0x51,
 0x88,0xe1,0x1f,0xe0,0x57,0xea,0x9f,0x28,0xff,0xfb,0xfe,0xbb,0xff,0xdf,0xff,
 0x9f,0x02,0xfc,0x69,0x95,0xbc,0xff,0xff,0xff,0x2b,0xac,0x1b,0x19,0x80,0x3b,
 0xe1,0x8b,0xe7,0x2f,0x94,0xf7,0xf4,0xff,0xdf,0xff,0x7f,0xff,0x1b,0x18,0xfc,
 0x76,0x5f,0xfa,0xff,0xff,0xff,0x9f,0x40,0x27,0x70,0x62,0x3f,0x24,0x56,0xe3,
 0x53,0xf3,0x7f,0xb8,0xbf,0xdf,0xff,0xff,0xff,0x37,0x49,0xfc,0x42,0xa9,0xd2,
 0xef,0xff,0xbf,0x3f,0x59,0xde,0xe0,0xfd,0x3f,0xc0,0xbf,0x90,0x04,0xfd,0x3f,
 0x1e,0xd0,0xff,0xff,0xff,0xff,0x2f,0x0a,0xfc,0xf9,0x6a,0x89,0xfe,0xff,0xbf,
 0x57,0x44,0x2d,0x03,0xf3,0x6d,0xc1,0xff,0xae,0x48,0x8b,0xd0,0x4f,0xfd,0x5d,
 0xf7,0xff,0xff,0x5f,0x10,0xfc,0xdc,0xed,0x6b,0xfa,0xff,0xff,0x2e,0x91,0xfc,
 0x85,0xff,0x3f,0x88,0xff,0x75,0x83,0xff,0xff,0x57,0xb4,0xff,0xee,0xdf,0xff,
 0x3f,0x15,0xfc,0xd2,0x23,0x15,0x45,0xfe,0xbf,0xbf,0x54,0xf7,0x3f,0x5d,0x7f,
 0x81,0xff,0xff,0xff,0xff,0x7f,0x4f,0xca,0xff,0xb9,0xff,0xff,0x1f,0x10,0xfc,
 0x22,0xdf,0xf6,0x11,0x01,0xe0,0x56,0x89,0xfc,0x7e,0xef,0xff,0x20,0xf1,0xff,
 0x7f,0x6c,0xa0,0x2d,0xb9,0xe7,0x65,0xff,0xff,0xbf,0x54,0xfc,0x09,0xfd,0xdf,
 0x9f,0x48,0x02,0xbb,0xab,0xfc,0x6f,0xfe,0xfb,0x02,0x0e,0xff,0xcf,0xff,0xff,
 0xa7,0xbf,0x0c,0xd3,0xfd,0xff,0x3d,0x30,0xfc,0x44,0xfc,0xc8,0x3e,0x16,0x29,
 0xbc,0x9a,0xfe,0xff,0xfe,0xbf,0x49,0xb6,0xda,0xf4,0xff,0xdf,0xf4,0x5f,0x42,
 0x27,0xfd,0xff,0xbf,0x12,0xfc,0x55,0xb2,0x75,0xed,0x25,0x44,0xe5,0xee,0xef,
 0xff,0xfe,0xff,0x01,0xfe,0x27,0xff,0xff,0xff,0xff,0x8d,0x2a,0x96,0xf2,0xff,
 0x3d,0x24,0xfc,0x44,0xa1,0xd6,0xf6,0xde,0x94,0xa0,0x63,0xfe,0xf7,0xef,0x6f,
 0x43,0xf8,0xfe,0xaf,0xff,0xbf,0x9d,0x5c,0x18,0x4d,0xed,0xff,0xbd,0x32,0xfc,
 0x32,0x96,0xb9,0x6a,0xfb,0x4d,0xaa,0xbd,0xff,0xff,0xf5,0xfe,0x03,0xd9,0xdd,
 0xfb,0xff,0xe1,0x50,0x89,0xaa,0x18,0xc2,0xff,0x3f,0x10,0xfc};
