#define arrowopen_width 13
#define arrowopen_height 13
static char arrowopen_bits[] = {
   0x00, 0x00, 0x00, 0x00, 0x10, 0x10, 0x30, 0x10, 0x70, 0x10, 0xf0, 0x10,
   0xf0, 0x11, 0xf0, 0x13, 0xf0, 0x11, 0xf0, 0x10, 0x70, 0x10, 0x30, 0x10,
   0x10, 0x10};
