#define btoffhi_width 16
#define btoffhi_height 16
static char btoffhi_bits[] = {
   0xff, 0x07, 0x01, 0x04, 0x01, 0x04, 0x01, 0x04, 0x01, 0x7c, 0x01, 0x7c,
   0x01, 0x7c, 0x01, 0x7c, 0x01, 0x7c, 0x01, 0x7c, 0x01, 0x7c, 0xff, 0x7f,
   0xf0, 0x7f, 0xf0, 0x7f, 0xf0, 0x7f, 0xf0, 0x7f};
