#define btoff_width 16
#define btoff_height 16
static char btoff_bits[] = {
   0xff, 0x07, 0x01, 0x04, 0x01, 0x04, 0x01, 0x04, 0x01, 0x7c, 0x01, 0x6c,
   0x01, 0x54, 0x01, 0x6c, 0x01, 0x54, 0x01, 0x6c, 0x01, 0x54, 0xff, 0x6f,
   0x50, 0x55, 0xb0, 0x6a, 0x50, 0x55, 0xf0, 0x7f};
