#define bton_width 16
#define bton_height 16
static char bton_bits[] = {
   0x00, 0x00, 0x00, 0x00, 0xfc, 0x1f, 0x04, 0x10, 0xf4, 0x77, 0xf4, 0x57,
   0xf4, 0x57, 0xf4, 0x57, 0xf4, 0x57, 0xf4, 0x57, 0xf4, 0x57, 0xf4, 0x57,
   0x04, 0x50, 0xfc, 0x5f, 0x10, 0x40, 0xf0, 0x7f};
