#define back_width 48
#define back_height 48
static char back_bits[] = {
   0x00, 0x00, 0x00, 0x00, 0x00, 0x00, 0x00, 0x00, 0x00, 0x00, 0x00, 0x00,
   0x00, 0x00, 0x00, 0x00, 0x00, 0x00, 0x00, 0x00, 0x00, 0x00, 0x00, 0x00,
   0x00, 0x00, 0x00, 0x00, 0x00, 0x00, 0x00, 0x80, 0x00, 0x00, 0x00, 0x00,
   0x00, 0xc0, 0x00, 0x00, 0x00, 0x00, 0x00, 0xa0, 0x00, 0x00, 0x00, 0x00,
   0x00, 0x90, 0x00, 0x00, 0x00, 0x00, 0x00, 0x88, 0xff, 0x1f, 0x3e, 0x00,
   0x00, 0x04, 0x00, 0x10, 0x41, 0x00, 0x00, 0x02, 0x00, 0x90, 0x80, 0x00,
   0x00, 0x01, 0x00, 0x90, 0x80, 0x00, 0x80, 0x00, 0x00, 0x90, 0x80, 0x00,
   0x00, 0x01, 0x00, 0x90, 0x80, 0x00, 0x00, 0x02, 0x00, 0x90, 0x80, 0x00,
   0x00, 0x04, 0x00, 0x10, 0x41, 0x00, 0x00, 0x88, 0xff, 0x1f, 0x3e, 0x00,
   0x00, 0x90, 0x00, 0x00, 0x00, 0x00, 0x00, 0xa0, 0x00, 0x00, 0x00, 0x00,
   0x00, 0xc0, 0x00, 0x00, 0x00, 0x00, 0x00, 0x80, 0x00, 0x00, 0x00, 0x00,
   0x00, 0x00, 0x00, 0x00, 0x00, 0x00, 0x00, 0x00, 0x00, 0x00, 0x00, 0x00,
   0x00, 0x00, 0x00, 0x00, 0x00, 0x00, 0x00, 0x00, 0x00, 0x00, 0x00, 0x00,
   0x00, 0x00, 0x00, 0x00, 0x00, 0x00, 0x00, 0x00, 0x00, 0x00, 0x00, 0x00,
   0x00, 0x00, 0x00, 0x00, 0x00, 0x00, 0xf0, 0x07, 0x00, 0x00, 0x10, 0x00,
   0x10, 0x08, 0x00, 0x00, 0x10, 0x00, 0x10, 0x10, 0x00, 0x00, 0x10, 0x00,
   0x10, 0x10, 0x00, 0x00, 0x10, 0x00, 0x10, 0x10, 0x3c, 0x00, 0x10, 0x00,
   0x10, 0x08, 0x42, 0xf0, 0x11, 0x08, 0xf0, 0x0f, 0x81, 0x08, 0x12, 0x04,
   0x10, 0x10, 0x80, 0x04, 0x10, 0x02, 0x10, 0x20, 0x80, 0x04, 0x10, 0x01,
   0x10, 0x20, 0xfe, 0x04, 0x90, 0x00, 0x10, 0x20, 0x81, 0x04, 0xd0, 0x00,
   0x10, 0x20, 0x81, 0x04, 0x30, 0x01, 0x10, 0x20, 0x81, 0x04, 0x10, 0x02,
   0x10, 0x10, 0xc2, 0x08, 0x12, 0x04, 0xf0, 0x0f, 0xbc, 0xf0, 0x11, 0x08,
   0x00, 0x00, 0x00, 0x00, 0x00, 0x00, 0x00, 0x00, 0x00, 0x00, 0x00, 0x00,
   0x00, 0x00, 0x00, 0x00, 0x00, 0x00, 0x00, 0x00, 0x00, 0x00, 0x00, 0x00};
