#define other_width 32
#define other_height 32
static char other_bits[] = {
   0x00, 0x00, 0x00, 0x00, 0x00, 0xe0, 0x0f, 0x00, 0x00, 0x1c, 0x70, 0x00,
   0x00, 0x43, 0x85, 0x01, 0xc0, 0xa8, 0x2a, 0x06, 0x30, 0x54, 0x55, 0x18,
   0x08, 0xaa, 0xaa, 0x20, 0x38, 0x54, 0x55, 0x38, 0xf8, 0xa8, 0x2a, 0x26,
   0x98, 0x43, 0x85, 0x21, 0x18, 0x1e, 0x70, 0x20, 0x18, 0xf0, 0x0f, 0x20,
   0x18, 0x00, 0x00, 0x20, 0x18, 0x00, 0x00, 0x20, 0x18, 0x8f, 0xe7, 0x27,
   0x98, 0xd9, 0xac, 0x25, 0x98, 0xd9, 0x80, 0x21, 0x98, 0xd9, 0x80, 0x21,
   0x98, 0xd9, 0x80, 0x21, 0x98, 0xd9, 0x80, 0x21, 0x98, 0xd9, 0x80, 0x21,
   0x98, 0xd9, 0x80, 0x21, 0x98, 0xd9, 0x8c, 0x21, 0x18, 0x8f, 0x87, 0x21,
   0x18, 0x00, 0x00, 0x20, 0x18, 0x00, 0x00, 0x20, 0x70, 0x00, 0x00, 0x18,
   0xc0, 0x01, 0x00, 0x06, 0x00, 0x07, 0x80, 0x01, 0x00, 0x3c, 0x70, 0x00,
   0x00, 0xe0, 0x0f, 0x00, 0x00, 0x00, 0x00, 0x00};
