#define folderclose.xbm_width 13
#define folderclose.xbm_height 13
static unsigned char folderclose.xbm_bits[] = {
   0x00, 0x00, 0x80, 0x07, 0x40, 0x08, 0xfe, 0x1f, 0x02, 0x18, 0x02, 0x18,
   0x02, 0x18, 0x02, 0x18, 0x02, 0x18, 0x02, 0x18, 0xfe, 0x1f, 0xfc, 0x1f,
   0x00, 0x00};
