#define folderopen.xbm_width 13
#define folderopen.xbm_height 13
static unsigned char folderopen.xbm_bits[] = {
   0x00, 0x00, 0x80, 0x07, 0x40, 0x08, 0x40, 0x18, 0xff, 0x1b, 0x01, 0x1a,
   0x02, 0x1c, 0x02, 0x1c, 0x04, 0x18, 0x04, 0x18, 0xf8, 0x1f, 0xf0, 0x1f,
   0x00, 0x00};
