#define tkman_width 64
#define tkman_height 64
static char tkman_bits[] = {
   0x00, 0x00, 0x00, 0x00, 0x00, 0x00, 0x00, 0x00, 0x00, 0x00, 0x00, 0x00,
   0x00, 0x00, 0x00, 0x00, 0x00, 0x00, 0x00, 0x00, 0x00, 0x00, 0x00, 0x00,
   0x00, 0x00, 0x00, 0x00, 0x00, 0x00, 0x00, 0x00, 0x00, 0x00, 0x00, 0x00,
   0x00, 0x00, 0x00, 0x00, 0x00, 0x00, 0x00, 0x00, 0x00, 0x00, 0x00, 0x00,
   0x00, 0x00, 0x00, 0x00, 0x00, 0x00, 0x00, 0x00, 0x00, 0xc0, 0x07, 0x00,
   0x00, 0x00, 0x00, 0x00, 0x00, 0x30, 0x18, 0x00, 0x00, 0x00, 0x00, 0x00,
   0x00, 0x0c, 0x60, 0x00, 0x00, 0x00, 0x00, 0x00, 0x00, 0x02, 0x80, 0x00,
   0x00, 0x00, 0x00, 0x00, 0x00, 0x02, 0x80, 0x00, 0x00, 0x00, 0x00, 0x00,
   0x00, 0x01, 0x00, 0x01, 0x00, 0x00, 0x00, 0x00, 0x00, 0x25, 0x24, 0x01,
   0x00, 0x00, 0x00, 0x00, 0x80, 0x18, 0x19, 0x02, 0x00, 0x00, 0x00, 0x00,
   0x80, 0x80, 0x00, 0x02, 0x00, 0x00, 0x00, 0x00, 0x80, 0x40, 0x00, 0x02,
   0x00, 0x00, 0x00, 0x00, 0x80, 0x40, 0x00, 0x02, 0x00, 0x00, 0x00, 0x00,
   0x80, 0xc0, 0x01, 0x02, 0x00, 0x00, 0x00, 0x00, 0x00, 0x01, 0x00, 0x01,
   0x00, 0x00, 0x00, 0x00, 0x00, 0x19, 0x30, 0x01, 0x00, 0x00, 0x00, 0x00,
   0x00, 0x32, 0x98, 0x00, 0x00, 0x00, 0x00, 0x00, 0x00, 0xc2, 0x87, 0x00,
   0x00, 0x00, 0x00, 0x00, 0x00, 0x0c, 0x60, 0x00, 0x00, 0x00, 0x00, 0x00,
   0x00, 0x30, 0x18, 0x00, 0x00, 0x00, 0x00, 0x00, 0x00, 0x40, 0x04, 0x00,
   0x00, 0x00, 0x00, 0x00, 0x00, 0x80, 0x02, 0x00, 0x00, 0x00, 0x00, 0x00,
   0x00, 0x80, 0x02, 0x00, 0x00, 0x00, 0x00, 0x00, 0x00, 0x80, 0x02, 0x00,
   0x00, 0x00, 0x00, 0x00, 0x00, 0x70, 0x1c, 0x00, 0x00, 0xe0, 0x01, 0x00,
   0x00, 0x0c, 0x60, 0x00, 0x00, 0xf8, 0x07, 0x00, 0x00, 0x03, 0x80, 0x01,
   0x00, 0xfc, 0x04, 0x00, 0x80, 0x00, 0x00, 0x02, 0x00, 0x24, 0x04, 0x00,
   0x80, 0x00, 0x00, 0x02, 0x00, 0xa4, 0x04, 0x00, 0x40, 0x00, 0x00, 0x04,
   0x18, 0xa4, 0x04, 0x30, 0x40, 0x00, 0x00, 0x04, 0x16, 0xa4, 0x04, 0x2c,
   0x20, 0x0e, 0xe0, 0x08, 0x12, 0xa4, 0x04, 0x24, 0x20, 0x0a, 0xa0, 0x08,
   0x12, 0xa4, 0x04, 0x24, 0x20, 0x0b, 0xa0, 0x09, 0x12, 0xa4, 0x04, 0x24,
   0xa0, 0x09, 0x20, 0x0b, 0x12, 0x24, 0x04, 0x24, 0xa0, 0x08, 0x20, 0x0a,
   0x12, 0x24, 0x04, 0x24, 0xd0, 0x08, 0x20, 0x16, 0xfa, 0xff, 0xff, 0x27,
   0x50, 0x08, 0x20, 0x14, 0xfe, 0xff, 0xff, 0x27, 0x70, 0x0c, 0x60, 0x1c,
   0x12, 0x00, 0x00, 0x24, 0x30, 0x04, 0x40, 0x18, 0x12, 0x00, 0x00, 0x24,
   0x30, 0x04, 0x40, 0x18, 0x12, 0x00, 0x00, 0x24, 0x10, 0x06, 0xc0, 0x10,
   0x12, 0x00, 0x00, 0x24, 0x00, 0x02, 0xc0, 0x00, 0x12, 0x00, 0x00, 0x24,
   0x00, 0x02, 0x81, 0x00, 0x12, 0x00, 0x00, 0x24, 0x00, 0x82, 0x82, 0x00,
   0x12, 0x00, 0x00, 0x24, 0x00, 0x82, 0x82, 0x00, 0x12, 0x00, 0x00, 0x24,
   0x00, 0x42, 0x84, 0x00, 0x12, 0x00, 0x00, 0x24, 0x00, 0x42, 0x84, 0x00,
   0x12, 0x00, 0x00, 0x24, 0x00, 0x22, 0x88, 0x00, 0x12, 0x00, 0x00, 0x24,
   0x00, 0x22, 0x88, 0x00, 0x12, 0x00, 0x00, 0x24, 0x00, 0x22, 0x88, 0x00,
   0x12, 0x00, 0x00, 0x24, 0x00, 0x22, 0x88, 0x00, 0x12, 0x00, 0x00, 0x24,
   0x00, 0x22, 0x88, 0x00, 0x12, 0x00, 0x00, 0x24, 0x00, 0x14, 0x50, 0x00,
   0x12, 0x00, 0x00, 0x24, 0x00, 0x14, 0x50, 0x00, 0x12, 0x00, 0x00, 0x24,
   0x00, 0x14, 0x50, 0x00, 0xfa, 0xff, 0xff, 0x27, 0x00, 0x14, 0x50, 0x00,
   0xfe, 0xff, 0xff, 0x27, 0x00, 0x14, 0x50, 0x00, 0x1a, 0x00, 0x00, 0x34,
   0x00, 0x14, 0x50, 0x00, 0x06, 0x00, 0x00, 0x0c};
