#define handy1.xbm_width 39
#define handy1.xbm_height 62
static unsigned char handy1.xbm_bits[] = {
   0x00, 0x00, 0x00, 0x00, 0x00, 0x00, 0x00, 0x00, 0x00, 0x00, 0x00, 0x00,
   0x00, 0x00, 0x00, 0x00, 0x00, 0x00, 0x00, 0x00, 0x00, 0x00, 0x00, 0x00,
   0x00, 0x00, 0x00, 0x00, 0x00, 0x00, 0x00, 0x00, 0x00, 0x00, 0x00, 0x00,
   0x00, 0x00, 0x00, 0x00, 0x00, 0x00, 0x00, 0x00, 0x00, 0x00, 0x00, 0x00,
   0x00, 0x00, 0x00, 0x40, 0x00, 0x00, 0x00, 0x00, 0x40, 0x00, 0x00, 0x00,
   0x00, 0x40, 0x00, 0x00, 0x00, 0x00, 0x40, 0x00, 0x00, 0x00, 0x00, 0x40,
   0x00, 0x00, 0x00, 0x00, 0x40, 0x00, 0x00, 0x00, 0x00, 0x40, 0x00, 0x00,
   0x00, 0x00, 0x40, 0x00, 0x00, 0x00, 0x00, 0x40, 0x00, 0x00, 0x00, 0x00,
   0x40, 0x00, 0x00, 0x00, 0x00, 0x40, 0x00, 0x00, 0x00, 0x00, 0x40, 0x00,
   0x00, 0x00, 0x00, 0x40, 0x00, 0x00, 0x00, 0x00, 0x40, 0x00, 0x00, 0x00,
   0x00, 0x40, 0x00, 0x00, 0x00, 0x00, 0x40, 0x00, 0x00, 0x00, 0x00, 0x40,
   0x00, 0x00, 0x00, 0x00, 0xf8, 0xff, 0x07, 0x00, 0x00, 0x08, 0x00, 0x04,
   0x00, 0x00, 0x08, 0x00, 0x04, 0x00, 0x00, 0xe8, 0xff, 0x05, 0x00, 0x00,
   0x28, 0x00, 0x05, 0x00, 0x00, 0x28, 0x00, 0x05, 0x00, 0x00, 0x28, 0x00,
   0x05, 0x00, 0x00, 0x28, 0x00, 0x05, 0x00, 0x00, 0x28, 0x00, 0x05, 0x00,
   0x00, 0x28, 0x00, 0x05, 0x00, 0x00, 0xe8, 0xff, 0x05, 0x00, 0x00, 0x08,
   0x00, 0x04, 0x00, 0x00, 0xc8, 0xef, 0x04, 0x00, 0x00, 0xc8, 0xef, 0x04,
   0x00, 0x00, 0xc8, 0xef, 0x04, 0x00, 0x00, 0xc8, 0xef, 0x04, 0x00, 0x00,
   0xc8, 0xef, 0x04, 0x00, 0x00, 0xc8, 0xef, 0x04, 0x00, 0x00, 0xc8, 0xef,
   0x04, 0x00, 0x00, 0xc8, 0xef, 0x04, 0x00, 0x00, 0x08, 0x00, 0x04, 0x00,
   0x00, 0xc8, 0xff, 0x04, 0x00, 0x00, 0xc8, 0xff, 0x04, 0x00, 0x00, 0xf8,
   0xff, 0x07, 0x00, 0x00, 0x00, 0x00, 0x00, 0x00, 0x00, 0x00, 0x00, 0x00,
   0x00, 0x00, 0x00, 0x00, 0x00, 0x00, 0x00, 0x00, 0x00, 0x00, 0x00, 0x00,
   0x00, 0x00, 0x00, 0x00, 0x00, 0x00, 0x00, 0x00, 0x00, 0x00, 0x00, 0x00,
   0x00, 0x00, 0x00, 0x00, 0x00, 0x00, 0x00, 0x00, 0x00, 0x00, 0x00, 0x00,
   0x00, 0x00, 0x00, 0x00, 0x00, 0x00, 0x00, 0x00, 0x00, 0x00};
