  0
SECTION
  2
HEADER
  9
$ACADVER
  1
AC1009
  9
$INSBASE
 10
0.0
 20
0.0
 30
0.0
  9
$EXTMIN
 10
380.0
 20
65.0
 30
0.0
  9
$EXTMAX
 10
4760.710678
 20
2675.0
 30
0.0
  9
$LIMMIN
 10
0.0
 20
0.0
  9
$LIMMAX
 10
4800.0
 20
3000.0
  9
$ORTHOMODE
 70
     1
  9
$REGENMODE
 70
     1
  9
$FILLMODE
 70
     1
  9
$QTEXTMODE
 70
     0
  9
$MIRRTEXT
 70
     1
  9
$DRAGMODE
 70
     2
  9
$LTSCALE
 40
25.0
  9
$OSMODE
 70
     0
  9
$ATTMODE
 70
     1
  9
$TEXTSIZE
 40
3.5
  9
$TRACEWID
 40
1.0
  9
$TEXTSTYLE
  7
STANDARD
  9
$CLAYER
  8
0
  9
$CELTYPE
  6
BYLAYER
  9
$CECOLOR
 62
   256
  9
$DIMSCALE
 40
1.0
  9
$DIMASZ
 40
3.5
  9
$DIMEXO
 40
0.1
  9
$DIMDLI
 40
7.0
  9
$DIMRND
 40
0.0
  9
$DIMDLE
 40
0.0
  9
$DIMEXE
 40
1.8
  9
$DIMTP
 40
0.0
  9
$DIMTM
 40
0.0
  9
$DIMTXT
 40
3.5
  9
$DIMCEN
 40
1.5
  9
$DIMTSZ
 40
0.0
  9
$DIMTOL
 70
     0
  9
$DIMLIM
 70
     0
  9
$DIMTIH
 70
     0
  9
$DIMTOH
 70
     0
  9
$DIMSE1
 70
     0
  9
$DIMSE2
 70
     0
  9
$DIMTAD
 70
     0
  9
$DIMZIN
 70
     0
  9
$DIMBLK
  1

  9
$DIMASO
 70
     1
  9
$DIMSHO
 70
     0
  9
$DIMPOST
  1

  9
$DIMAPOST
  1

  9
$DIMALT
 70
     0
  9
$DIMALTD
 70
     2
  9
$DIMALTF
 40
25.4
  9
$DIMLFAC
 40
1.0
  9
$DIMTOFL
 70
     0
  9
$DIMTVP
 40
0.0
  9
$DIMTIX
 70
     0
  9
$DIMSOXD
 70
     0
  9
$DIMSAH
 70
     0
  9
$DIMBLK1
  1

  9
$DIMBLK2
  1

  9
$DIMSTYLE
  2
*UNNAMED
  9
$DIMCLRD
 70
     0
  9
$DIMCLRE
 70
     0
  9
$DIMCLRT
 70
     0
  9
$DIMTFAC
 40
1.0
  9
$DIMGAP
 40
0.09
  9
$LUNITS
 70
     2
  9
$LUPREC
 70
     2
  9
$SKETCHINC
 40
1.0
  9
$FILLETRAD
 40
0.0
  9
$AUNITS
 70
     0
  9
$AUPREC
 70
     0
  9
$MENU
  1
ACAD
  9
$ELEVATION
 40
0.0
  9
$PELEVATION
 40
0.0
  9
$THICKNESS
 40
0.0
  9
$LIMCHECK
 70
     1
  9
$BLIPMODE
 70
     1
  9
$CHAMFERA
 40
0.0
  9
$CHAMFERB
 40
0.0
  9
$SKPOLY
 70
     0
  9
$TDCREATE
 40
2450347.5
  9
$TDUPDATE
 40
2450368.7
  9
$TDINDWG
 40
0.736
  9
$TDUSRTIMER
 40
0.736
  9
$USRTIMER
 70
     1
  9
$ANGBASE
 50
0.0
  9
$ANGDIR
 70
     0
  9
$PDMODE
 70
     0
  9
$PDSIZE
 40
0.0
  9
$PLINEWID
 40
0.0
  9
$COORDS
 70
     2
  9
$SPLFRAME
 70
     0
  9
$SPLINETYPE
 70
     6
  9
$SPLINESEGS
 70
     8
  9
$ATTDIA
 70
     0
  9
$ATTREQ
 70
     1
  9
$HANDLING
 70
     0
  9
$HANDSEED
  5
0
  9
$SURFTAB1
 70
     6
  9
$SURFTAB2
 70
     6
  9
$SURFTYPE
 70
     6
  9
$SURFU
 70
     6
  9
$SURFV
 70
     6
  9
$UCSNAME
  2

  9
$UCSORG
 10
0.0
 20
0.0
 30
0.0
  9
$UCSXDIR
 10
1.0
 20
0.0
 30
0.0
  9
$UCSYDIR
 10
0.0
 20
1.0
 30
0.0
  9
$PUCSNAME
  2

  9
$PUCSORG
 10
0.0
 20
0.0
 30
0.0
  9
$PUCSXDIR
 10
1.0
 20
0.0
 30
0.0
  9
$PUCSYDIR
 10
0.0
 20
1.0
 30
0.0
  9
$USERI1
 70
     0
  9
$USERI2
 70
     0
  9
$USERI3
 70
     0
  9
$USERI4
 70
     0
  9
$USERI5
 70
     0
  9
$USERR1
 40
0.0
  9
$USERR2
 40
0.0
  9
$USERR3
 40
0.0
  9
$USERR4
 40
0.0
  9
$USERR5
 40
0.0
  9
$WORLDVIEW
 70
     1
  9
$SHADEDGE
 70
     3
  9
$SHADEDIF
 70
    70
  9
$TILEMODE
 70
     1
  9
$MAXACTVP
 70
    16
  9
$PINSBASE
 10
0.0
 20
0.0
 30
0.0
  9
$PLIMCHECK
 70
     0
  9
$PLIMMIN
 10
0.0
 20
0.0
  9
$PLIMMAX
 10
12.0
 20
9.0
  9
$UNITMODE
 70
     0
  9
$VISRETAIN
 70
     0
  9
$PLINEGEN
 70
     0
  9
$PSLTSCALE
 70
     0
  9
$TREEDEPTH
 70
  3020
  9
$DWGCODEPAGE
  3
dos850
  0
ENDSEC
  0
SECTION
  2
TABLES
  0
TABLE
  2
VPORT
 70
     2
  0
VPORT
  2
*ACTIVE
 70
     0
 10
0.0
 20
0.0
 11
1.0
 21
1.0
 12
1750.48951
 22
2193.777507
 13
0.0
 23
0.0
 14
1.0
 24
1.0
 15
20.0
 25
20.0
 16
0.0
 26
0.0
 36
1.0
 17
0.0
 27
0.0
 37
0.0
 40
1039.113321
 41
1.382567
 42
50.0
 43
0.0
 44
0.0
 50
0.0
 51
0.0
 71
     0
 72
   100
 73
     1
 74
     1
 75
     0
 76
     0
 77
     0
 78
     0
  0
ENDTAB
  0
TABLE
  2
LTYPE
 70
     1
  0
LTYPE
  2
CONTINUOUS
 70
    64
  3
Solid line
 72
    65
 73
     0
 40
0.0
  0
ENDTAB
  0
TABLE
  2
LAYER
 70
     1
  0
LAYER
  2
0
 70
    64
 62
     7
  6
CONTINUOUS
  0
ENDTAB
  0
TABLE
  2
STYLE
 70
     1
  0
STYLE
  2
STANDARD
 70
     0
 40
0.0
 41
1.0
 50
0.0
 71
     0
 42
3.5
  3
txt.shx
  4

  0
ENDTAB
  0
TABLE
  2
VIEW
 70
     0
  0
ENDTAB
  0
TABLE
  2
UCS
 70
     0
  0
ENDTAB
  0
TABLE
  2
APPID
 70
     1
  0
APPID
  2
ACAD
 70
    64
  0
ENDTAB
  0
TABLE
  2
DIMSTYLE
 70
     0
  0
ENDTAB
  0
ENDSEC
  0
SECTION
  2
BLOCKS
  0
BLOCK
  8
0
  2
ZW1
 70
    64
 10
0.0
 20
0.0
 30
0.0
  3
ZW1
  0
LINE
  8
0
 10
0.0
 20
-250.0
 30
0.0
 11
0.0
 21
0.0
 31
0.0
  0
LINE
  8
0
 10
50.0
 20
-50.0
 30
0.0
 11
50.0
 21
-250.0
 31
0.0
  0
LINE
  8
0
 10
50.0
 20
-250.0
 30
0.0
 11
0.0
 21
-250.0
 31
0.0
  0
LINE
  8
0
 10
0.0
 20
0.0
 30
0.0
 11
310.0
 21
0.0
 31
0.0
  0
LINE
  8
0
 10
310.0
 20
-50.0
 30
0.0
 11
50.0
 21
-50.0
 31
0.0
  0
LINE
  8
0
 10
310.0
 20
0.0
 30
0.0
 11
310.0
 21
-50.0
 31
0.0
  0
ENDBLK
  8
0
  0
BLOCK
  8
0
  2
FENSTER
 70
    64
 10
0.0
 20
0.0
 30
0.0
  3
FENSTER
  0
LINE
  8
0
 10
180.0
 20
-10.0
 30
0.0
 11
0.0
 21
-10.0
 31
0.0
  0
LINE
  8
0
 10
0.0
 20
0.0
 30
0.0
 11
180.0
 21
0.0
 31
0.0
  0
LINE
  8
0
 10
0.0
 20
-10.0
 30
0.0
 11
0.0
 21
0.0
 31
0.0
  0
LINE
  8
0
 10
180.0
 20
0.0
 30
0.0
 11
180.0
 21
-10.0
 31
0.0
  0
ENDBLK
  8
0
  0
BLOCK
  8
0
  2
ZW2
 70
    64
 10
0.0
 20
0.0
 30
0.0
  3
ZW2
  0
LINE
  8
0
 10
0.0
 20
-50.0
 30
0.0
 11
0.0
 21
0.0
 31
0.0
  0
LINE
  8
0
 10
140.0
 20
0.0
 30
0.0
 11
140.0
 21
-50.0
 31
0.0
  0
LINE
  8
0
 10
140.0
 20
-50.0
 30
0.0
 11
0.0
 21
-50.0
 31
0.0
  0
LINE
  8
0
 10
0.0
 20
0.0
 30
0.0
 11
140.0
 21
0.0
 31
0.0
  0
ENDBLK
  8
0
  0
BLOCK
  8
0
  2
ZW3
 70
    64
 10
0.0
 20
0.0
 30
0.0
  3
ZW3
  0
LINE
  8
0
 10
55.0
 20
-385.0
 30
0.0
 11
55.0
 21
-50.0
 31
0.0
  0
LINE
  8
0
 10
85.0
 20
-50.0
 30
0.0
 11
85.0
 21
-385.0
 31
0.0
  0
LINE
  8
0
 10
85.0
 20
-385.0
 30
0.0
 11
55.0
 21
-385.0
 31
0.0
  0
LINE
  8
0
 10
55.0
 20
-50.0
 30
0.0
 11
0.0
 21
-50.0
 31
0.0
  0
LINE
  8
0
 10
0.0
 20
0.0
 30
0.0
 11
140.0
 21
0.0
 31
0.0
  0
LINE
  8
0
 10
140.0
 20
-50.0
 30
0.0
 11
85.0
 21
-50.0
 31
0.0
  0
LINE
  8
0
 10
140.0
 20
0.0
 30
0.0
 11
140.0
 21
-50.0
 31
0.0
  0
LINE
  8
0
 10
0.0
 20
-50.0
 30
0.0
 11
0.0
 21
0.0
 31
0.0
  0
ENDBLK
  8
0
  0
BLOCK
  8
0
  2
ZW4
 70
    64
 10
0.0
 20
0.0
 30
0.0
  3
ZW4
  0
LINE
  8
0
 10
0.0
 20
0.0
 30
0.0
 11
390.0
 21
0.0
 31
0.0
  0
LINE
  8
0
 10
465.0
 20
-40.0
 30
0.0
 11
0.0
 21
-40.0
 31
0.0
  0
LINE
  8
0
 10
0.0
 20
-40.0
 30
0.0
 11
0.0
 21
0.0
 31
0.0
  0
LINE
  8
0
 10
390.0
 20
0.0
 30
0.0
 11
390.0
 21
90.0
 31
0.0
  0
LINE
  8
0
 10
420.0
 20
90.0
 30
0.0
 11
420.0
 21
0.0
 31
0.0
  0
LINE
  8
0
 10
550.0
 20
-40.0
 30
0.0
 11
505.0
 21
-40.0
 31
0.0
  0
LINE
  8
0
 10
420.0
 20
0.0
 30
0.0
 11
550.0
 21
0.0
 31
0.0
  0
LINE
  8
0
 10
465.0
 20
-80.0
 30
0.0
 11
465.0
 21
-40.0
 31
0.0
  0
LINE
  8
0
 10
505.0
 20
-40.0
 30
0.0
 11
505.0
 21
-80.0
 31
0.0
  0
LINE
  8
0
 10
505.0
 20
-80.0
 30
0.0
 11
465.0
 21
-80.0
 31
0.0
  0
LINE
  8
0
 10
550.0
 20
0.0
 30
0.0
 11
550.0
 21
-40.0
 31
0.0
  0
LINE
  8
0
 10
390.0
 20
90.0
 30
0.0
 11
420.0
 21
90.0
 31
0.0
  0
ENDBLK
  8
0
  0
BLOCK
  8
0
  2
ZW5
 70
    64
 10
0.0
 20
0.0
 30
0.0
  3
ZW5
  0
LINE
  8
0
 10
815.0
 20
-40.0
 30
0.0
 11
50.0
 21
-40.0
 31
0.0
  0
LINE
  8
0
 10
220.0
 20
0.0
 30
0.0
 11
815.0
 21
0.0
 31
0.0
  0
LINE
  8
0
 10
220.0
 20
60.0
 30
0.0
 11
220.0
 21
0.0
 31
0.0
  0
LINE
  8
0
 10
120.0
 20
0.0
 30
0.0
 11
120.0
 21
145.0
 31
0.0
  0
LINE
  8
0
 10
0.0
 20
-100.0
 30
0.0
 11
0.0
 21
0.0
 31
0.0
  0
LINE
  8
0
 10
50.0
 20
-40.0
 30
0.0
 11
50.0
 21
-100.0
 31
0.0
  0
LINE
  8
0
 10
50.0
 20
-100.0
 30
0.0
 11
0.0
 21
-100.0
 31
0.0
  0
LINE
  8
0
 10
0.0
 20
0.0
 30
0.0
 11
120.0
 21
0.0
 31
0.0
  0
LINE
  8
0
 10
120.0
 20
145.0
 30
0.0
 11
170.0
 21
145.0
 31
0.0
  0
LINE
  8
0
 10
170.0
 20
145.0
 30
0.0
 11
170.0
 21
60.0
 31
0.0
  0
LINE
  8
0
 10
170.0
 20
60.0
 30
0.0
 11
220.0
 21
60.0
 31
0.0
  0
LINE
  8
0
 10
815.0
 20
0.0
 30
0.0
 11
815.0
 21
-40.0
 31
0.0
  0
ENDBLK
  8
0
  0
BLOCK
  8
0
  2
TUER
 70
    64
 10
0.0
 20
0.0
 30
0.0
  3
TUER
  0
ARC
  8
0
 10
0.0
 20
0.0
 30
0.0
 40
100.0
 50
270.0
 51
0.0
  0
LINE
  8
0
 10
0.0
 20
0.0
 30
0.0
 11
100.0
 21
0.0
 31
0.0
  0
ENDBLK
  8
0
  0
BLOCK
  8
0
  2
GW1
 70
    64
 10
0.0
 20
0.0
 30
0.0
  3
GW1
  0
LINE
  8
0
 10
0.0
 20
-335.0
 30
0.0
 11
0.0
 21
0.0
 31
0.0
  0
LINE
  8
0
 10
10.0
 20
0.0
 30
0.0
 11
10.0
 21
-335.0
 31
0.0
  0
LINE
  8
0
 10
10.0
 20
-335.0
 30
0.0
 11
0.0
 21
-335.0
 31
0.0
  0
LINE
  8
0
 10
0.0
 20
0.0
 30
0.0
 11
10.0
 21
0.0
 31
0.0
  0
ENDBLK
  8
0
  0
BLOCK
  8
0
  2
GW2
 70
    64
 10
0.0
 20
0.0
 30
0.0
  3
GW2
  0
LINE
  8
0
 10
0.0
 20
-90.0
 30
0.0
 11
0.0
 21
0.0
 31
0.0
  0
LINE
  8
0
 10
10.0
 20
0.0
 30
0.0
 11
10.0
 21
-90.0
 31
0.0
  0
LINE
  8
0
 10
10.0
 20
-90.0
 30
0.0
 11
0.0
 21
-90.0
 31
0.0
  0
LINE
  8
0
 10
0.0
 20
0.0
 30
0.0
 11
10.0
 21
0.0
 31
0.0
  0
ENDBLK
  8
0
  0
BLOCK
  8
0
  2
ZW6
 70
    64
 10
0.0
 20
0.0
 30
0.0
  3
ZW6
  0
LINE
  8
0
 10
45.0
 20
-575.0
 30
0.0
 11
45.0
 21
-50.0
 31
0.0
  0
LINE
  8
0
 10
75.0
 20
-50.0
 30
0.0
 11
75.0
 21
-575.0
 31
0.0
  0
LINE
  8
0
 10
180.0
 20
-615.0
 30
0.0
 11
-5.0
 21
-615.0
 31
0.0
  0
LINE
  8
0
 10
75.0
 20
-575.0
 30
0.0
 11
180.0
 21
-575.0
 31
0.0
  0
LINE
  8
0
 10
-5.0
 20
-615.0
 30
0.0
 11
-5.0
 21
-575.0
 31
0.0
  0
LINE
  8
0
 10
-5.0
 20
-575.0
 30
0.0
 11
45.0
 21
-575.0
 31
0.0
  0
LINE
  8
0
 10
180.0
 20
-575.0
 30
0.0
 11
180.0
 21
-615.0
 31
0.0
  0
LINE
  8
0
 10
75.0
 20
-50.0
 30
0.0
 11
140.0
 21
-50.0
 31
0.0
  0
LINE
  8
0
 10
0.0
 20
0.0
 30
0.0
 11
140.0
 21
0.0
 31
0.0
  0
LINE
  8
0
 10
0.0
 20
-50.0
 30
0.0
 11
0.0
 21
0.0
 31
0.0
  0
LINE
  8
0
 10
45.0
 20
-50.0
 30
0.0
 11
0.0
 21
-50.0
 31
0.0
  0
LINE
  8
0
 10
140.0
 20
0.0
 30
0.0
 11
140.0
 21
-50.0
 31
0.0
  0
ENDBLK
  8
0
  0
BLOCK
  8
0
  2
ZW7
 70
    64
 10
0.0
 20
0.0
 30
0.0
  3
ZW7
  0
LINE
  8
0
 10
190.0
 20
-615.0
 30
0.0
 11
-40.0
 21
-615.0
 31
0.0
  0
LINE
  8
0
 10
85.0
 20
-575.0
 30
0.0
 11
190.0
 21
-575.0
 31
0.0
  0
LINE
  8
0
 10
140.0
 20
-50.0
 30
0.0
 11
85.0
 21
-50.0
 31
0.0
  0
LINE
  8
0
 10
0.0
 20
0.0
 30
0.0
 11
140.0
 21
0.0
 31
0.0
  0
LINE
  8
0
 10
55.0
 20
-575.0
 30
0.0
 11
55.0
 21
-50.0
 31
0.0
  0
LINE
  8
0
 10
85.0
 20
-50.0
 30
0.0
 11
85.0
 21
-575.0
 31
0.0
  0
LINE
  8
0
 10
-40.0
 20
-575.0
 30
0.0
 11
55.0
 21
-575.0
 31
0.0
  0
LINE
  8
0
 10
-40.0
 20
-615.0
 30
0.0
 11
-40.0
 21
-575.0
 31
0.0
  0
LINE
  8
0
 10
55.0
 20
-50.0
 30
0.0
 11
0.0
 21
-50.0
 31
0.0
  0
LINE
  8
0
 10
0.0
 20
-50.0
 30
0.0
 11
0.0
 21
0.0
 31
0.0
  0
LINE
  8
0
 10
190.0
 20
-575.0
 30
0.0
 11
190.0
 21
-615.0
 31
0.0
  0
LINE
  8
0
 10
140.0
 20
0.0
 30
0.0
 11
140.0
 21
-50.0
 31
0.0
  0
ENDBLK
  8
0
  0
BLOCK
  8
0
  2
ZW8
 70
    64
 10
0.0
 20
0.0
 30
0.0
  3
ZW8
  0
LINE
  8
0
 10
55.0
 20
-575.0
 30
0.0
 11
55.0
 21
-50.0
 31
0.0
  0
LINE
  8
0
 10
85.0
 20
-50.0
 30
0.0
 11
85.0
 21
-575.0
 31
0.0
  0
LINE
  8
0
 10
-30.0
 20
-575.0
 30
0.0
 11
55.0
 21
-575.0
 31
0.0
  0
LINE
  8
0
 10
55.0
 20
-615.0
 30
0.0
 11
-30.0
 21
-615.0
 31
0.0
  0
LINE
  8
0
 10
-30.0
 20
-615.0
 30
0.0
 11
-30.0
 21
-575.0
 31
0.0
  0
LINE
  8
0
 10
55.0
 20
-655.0
 30
0.0
 11
55.0
 21
-615.0
 31
0.0
  0
LINE
  8
0
 10
85.0
 20
-615.0
 30
0.0
 11
85.0
 21
-655.0
 31
0.0
  0
LINE
  8
0
 10
85.0
 20
-655.0
 30
0.0
 11
55.0
 21
-655.0
 31
0.0
  0
LINE
  8
0
 10
110.0
 20
-615.0
 30
0.0
 11
85.0
 21
-615.0
 31
0.0
  0
LINE
  8
0
 10
85.0
 20
-575.0
 30
0.0
 11
110.0
 21
-575.0
 31
0.0
  0
LINE
  8
0
 10
110.0
 20
-575.0
 30
0.0
 11
110.0
 21
-615.0
 31
0.0
  0
LINE
  8
0
 10
140.0
 20
-50.0
 30
0.0
 11
85.0
 21
-50.0
 31
0.0
  0
LINE
  8
0
 10
0.0
 20
0.0
 30
0.0
 11
140.0
 21
0.0
 31
0.0
  0
LINE
  8
0
 10
0.0
 20
-50.0
 30
0.0
 11
0.0
 21
0.0
 31
0.0
  0
LINE
  8
0
 10
55.0
 20
-50.0
 30
0.0
 11
0.0
 21
-50.0
 31
0.0
  0
LINE
  8
0
 10
140.0
 20
0.0
 30
0.0
 11
140.0
 21
-50.0
 31
0.0
  0
ENDBLK
  8
0
  0
BLOCK
  8
0
  2
SAEULE
 70
    64
 10
0.0
 20
0.0
 30
0.0
  3
SAEULE
  0
LINE
  8
0
 10
0.0
 20
-40.0
 30
0.0
 11
0.0
 21
0.0
 31
0.0
  0
LINE
  8
0
 10
50.0
 20
0.0
 30
0.0
 11
50.0
 21
-40.0
 31
0.0
  0
LINE
  8
0
 10
50.0
 20
-40.0
 30
0.0
 11
0.0
 21
-40.0
 31
0.0
  0
LINE
  8
0
 10
0.0
 20
0.0
 30
0.0
 11
50.0
 21
0.0
 31
0.0
  0
ENDBLK
  8
0
  0
BLOCK
  8
0
  2
GW3
 70
    64
 10
0.0
 20
0.0
 30
0.0
  3
GW3
  0
LINE
  8
0
 10
0.0
 20
-525.0
 30
0.0
 11
0.0
 21
0.0
 31
0.0
  0
LINE
  8
0
 10
10.0
 20
0.0
 30
0.0
 11
10.0
 21
-525.0
 31
0.0
  0
LINE
  8
0
 10
10.0
 20
-525.0
 30
0.0
 11
0.0
 21
-525.0
 31
0.0
  0
LINE
  8
0
 10
0.0
 20
0.0
 30
0.0
 11
10.0
 21
0.0
 31
0.0
  0
ENDBLK
  8
0
  0
BLOCK
  8
0
  2
GW4
 70
    64
 10
0.0
 20
0.0
 30
0.0
  3
GW4
  0
LINE
  8
0
 10
100.0
 20
-10.0
 30
0.0
 11
0.0
 21
-10.0
 31
0.0
  0
LINE
  8
0
 10
0.0
 20
0.0
 30
0.0
 11
100.0
 21
0.0
 31
0.0
  0
LINE
  8
0
 10
0.0
 20
-10.0
 30
0.0
 11
0.0
 21
0.0
 31
0.0
  0
LINE
  8
0
 10
100.0
 20
0.0
 30
0.0
 11
100.0
 21
-10.0
 31
0.0
  0
ENDBLK
  8
0
  0
BLOCK
  8
0
  2
GW5
 70
    64
 10
0.0
 20
0.0
 30
0.0
  3
GW5
  0
LINE
  8
0
 10
375.0
 20
-10.0
 30
0.0
 11
0.0
 21
-10.0
 31
0.0
  0
LINE
  8
0
 10
0.0
 20
0.0
 30
0.0
 11
375.0
 21
0.0
 31
0.0
  0
LINE
  8
0
 10
0.0
 20
-10.0
 30
0.0
 11
0.0
 21
0.0
 31
0.0
  0
LINE
  8
0
 10
375.0
 20
0.0
 30
0.0
 11
375.0
 21
-10.0
 31
0.0
  0
ENDBLK
  8
0
  0
BLOCK
  8
0
  2
TUER_RE
 70
     0
 10
0.0
 20
0.0
 30
0.0
  3
TUER_RE
  0
ARC
  8
0
 10
0.0
 20
0.0
 30
0.0
 40
100.0
 50
90.0
 51
180.0
  0
LINE
  8
0
 10
0.0
 20
0.0
 30
0.0
 11
0.0
 21
100.0
 31
0.0
  0
ENDBLK
  8
0
  0
BLOCK
  8
0
  2
G_TUER
 70
    64
 10
0.0
 20
0.0
 30
0.0
  3
G_TUER
  0
ARC
  8
0
 10
0.0
 20
0.0
 30
0.0
 40
100.0
 50
180.0
 51
270.0
  0
LINE
  8
0
 10
0.0
 20
0.0
 30
0.0
 11
0.0
 21
-100.0
 31
0.0
  0
ENDBLK
  8
0
  0
BLOCK
  8
0
  2
M_TUER
 70
    64
 10
0.0
 20
0.0
 30
0.0
  3
M_TUER
  0
ARC
  8
0
 10
0.0
 20
0.0
 30
0.0
 40
100.0
 50
180.0
 51
270.0
  0
LINE
  8
0
 10
0.0
 20
0.0
 30
0.0
 11
0.0
 21
-100.0
 31
0.0
  0
ENDBLK
  8
0
  0
BLOCK
  8
0
  2
ZW9
 70
    64
 10
0.0
 20
0.0
 30
0.0
  3
ZW9
  0
LINE
  8
0
 10
0.0
 20
-50.0
 30
0.0
 11
0.0
 21
0.0
 31
0.0
  0
LINE
  8
0
 10
140.0
 20
175.0
 30
0.0
 11
140.0
 21
-50.0
 31
0.0
  0
LINE
  8
0
 10
140.0
 20
-50.0
 30
0.0
 11
0.0
 21
-50.0
 31
0.0
  0
LINE
  8
0
 10
0.0
 20
0.0
 30
0.0
 11
90.0
 21
0.0
 31
0.0
  0
LINE
  8
0
 10
90.0
 20
0.0
 30
0.0
 11
90.0
 21
175.0
 31
0.0
  0
LINE
  8
0
 10
90.0
 20
175.0
 30
0.0
 11
140.0
 21
175.0
 31
0.0
  0
ENDBLK
  8
0
  0
BLOCK
  8
0
  2
M_TUER_RE
 70
     0
 10
0.0
 20
0.0
 30
0.0
  3
M_TUER_RE
  0
ARC
  8
0
 10
0.0
 20
0.0
 30
0.0
 40
100.0
 50
90.0
 51
180.0
  0
LINE
  8
0
 10
0.0
 20
0.0
 30
0.0
 11
0.0
 21
100.0
 31
0.0
  0
ENDBLK
  8
0
  0
BLOCK
  8
0
  2
ZW10
 70
    64
 10
0.0
 20
0.0
 30
0.0
  3
ZW10
  0
LINE
  8
0
 10
0.0
 20
-1305.0
 30
0.0
 11
0.0
 21
-780.0
 31
0.0
  0
LINE
  8
0
 10
40.0
 20
0.0
 30
0.0
 11
40.0
 21
-1305.0
 31
0.0
  0
LINE
  8
0
 10
110.0
 20
-1355.0
 30
0.0
 11
-90.0
 21
-1355.0
 31
0.0
  0
LINE
  8
0
 10
40.0
 20
-1305.0
 30
0.0
 11
110.0
 21
-1305.0
 31
0.0
  0
LINE
  8
0
 10
-90.0
 20
-1355.0
 30
0.0
 11
-90.0
 21
-1305.0
 31
0.0
  0
LINE
  8
0
 10
-90.0
 20
-1305.0
 30
0.0
 11
0.0
 21
-1305.0
 31
0.0
  0
LINE
  8
0
 10
110.0
 20
-1305.0
 30
0.0
 11
110.0
 21
-1355.0
 31
0.0
  0
LINE
  8
0
 10
0.0
 20
-425.0
 30
0.0
 11
0.0
 21
0.0
 31
0.0
  0
LINE
  8
0
 10
0.0
 20
-740.0
 30
0.0
 11
0.0
 21
-465.0
 31
0.0
  0
LINE
  8
0
 10
-50.0
 20
-740.0
 30
0.0
 11
0.0
 21
-740.0
 31
0.0
  0
LINE
  8
0
 10
0.0
 20
-780.0
 30
0.0
 11
-50.0
 21
-780.0
 31
0.0
  0
LINE
  8
0
 10
-50.0
 20
-780.0
 30
0.0
 11
-50.0
 21
-740.0
 31
0.0
  0
LINE
  8
0
 10
-50.0
 20
-425.0
 30
0.0
 11
0.0
 21
-425.0
 31
0.0
  0
LINE
  8
0
 10
0.0
 20
-465.0
 30
0.0
 11
-50.0
 21
-465.0
 31
0.0
  0
LINE
  8
0
 10
-50.0
 20
-465.0
 30
0.0
 11
-50.0
 21
-425.0
 31
0.0
  0
LINE
  8
0
 10
0.0
 20
0.0
 30
0.0
 11
40.0
 21
0.0
 31
0.0
  0
ENDBLK
  8
0
  0
BLOCK
  8
0
  2
ZW11
 70
    64
 10
0.0
 20
0.0
 30
0.0
  3
ZW11
  0
LINE
  8
0
 10
415.0
 20
-40.0
 30
0.0
 11
0.0
 21
-40.0
 31
0.0
  0
LINE
  8
0
 10
360.0
 20
-565.0
 30
0.0
 11
415.0
 21
-565.0
 31
0.0
  0
LINE
  8
0
 10
500.0
 20
-615.0
 30
0.0
 11
360.0
 21
-615.0
 31
0.0
  0
LINE
  8
0
 10
0.0
 20
0.0
 30
0.0
 11
415.0
 21
0.0
 31
0.0
  0
LINE
  8
0
 10
360.0
 20
-615.0
 30
0.0
 11
360.0
 21
-565.0
 31
0.0
  0
LINE
  8
0
 10
0.0
 20
-40.0
 30
0.0
 11
0.0
 21
0.0
 31
0.0
  0
LINE
  8
0
 10
415.0
 20
-565.0
 30
0.0
 11
415.0
 21
-40.0
 31
0.0
  0
LINE
  8
0
 10
445.0
 20
-40.0
 30
0.0
 11
445.0
 21
-565.0
 31
0.0
  0
LINE
  8
0
 10
500.0
 20
-565.0
 30
0.0
 11
500.0
 21
-615.0
 31
0.0
  0
LINE
  8
0
 10
445.0
 20
-565.0
 30
0.0
 11
500.0
 21
-565.0
 31
0.0
  0
LINE
  8
0
 10
445.0
 20
40.0
 30
0.0
 11
445.0
 21
0.0
 31
0.0
  0
LINE
  8
0
 10
415.0
 20
0.0
 30
0.0
 11
415.0
 21
40.0
 31
0.0
  0
LINE
  8
0
 10
470.0
 20
-40.0
 30
0.0
 11
445.0
 21
-40.0
 31
0.0
  0
LINE
  8
0
 10
470.0
 20
0.0
 30
0.0
 11
470.0
 21
-40.0
 31
0.0
  0
LINE
  8
0
 10
445.0
 20
0.0
 30
0.0
 11
470.0
 21
0.0
 31
0.0
  0
LINE
  8
0
 10
415.0
 20
40.0
 30
0.0
 11
445.0
 21
40.0
 31
0.0
  0
ENDBLK
  8
0
  0
BLOCK
  8
0
  2
G_DTUER
 70
    64
 10
0.0
 20
0.0
 30
0.0
  3
G_DTUER
  0
ARC
  8
0
 10
0.0
 20
0.0
 30
0.0
 40
137.5
 50
90.0
 51
180.0
  0
ARC
  8
0
 10
0.0
 20
275.0
 30
0.0
 40
137.5
 50
180.0
 51
270.0
  0
LINE
  8
0
 10
0.0
 20
0.0
 30
0.0
 11
-137.5
 21
0.0
 31
0.0
  0
LINE
  8
0
 10
0.0
 20
275.0
 30
0.0
 11
-137.5
 21
275.0
 31
0.0
  0
ENDBLK
  8
0
  0
BLOCK
  8
0
  2
ZW12
 70
    64
 10
0.0
 20
0.0
 30
0.0
  3
ZW12
  0
LINE
  8
0
 10
0.0
 20
-365.0
 30
0.0
 11
-410.0
 21
-365.0
 31
0.0
  0
LINE
  8
0
 10
40.0
 20
-405.0
 30
0.0
 11
-335.0
 21
-405.0
 31
0.0
  0
LINE
  8
0
 10
-375.0
 20
-935.0
 30
0.0
 11
-375.0
 21
-405.0
 31
0.0
  0
LINE
  8
0
 10
-335.0
 20
-405.0
 30
0.0
 11
-335.0
 21
-935.0
 31
0.0
  0
LINE
  8
0
 10
-335.0
 20
-935.0
 30
0.0
 11
-375.0
 21
-935.0
 31
0.0
  0
LINE
  8
0
 10
-410.0
 20
-405.0
 30
0.0
 11
-410.0
 21
-365.0
 31
0.0
  0
LINE
  8
0
 10
-375.0
 20
-405.0
 30
0.0
 11
-410.0
 21
-405.0
 31
0.0
  0
LINE
  8
0
 10
0.0
 20
-220.0
 30
0.0
 11
0.0
 21
-365.0
 31
0.0
  0
LINE
  8
0
 10
40.0
 20
-295.0
 30
0.0
 11
40.0
 21
-405.0
 31
0.0
  0
LINE
  8
0
 10
190.0
 20
-905.0
 30
0.0
 11
190.0
 21
-295.0
 31
0.0
  0
LINE
  8
0
 10
240.0
 20
-80.0
 30
0.0
 11
240.0
 21
-605.0
 31
0.0
  0
LINE
  8
0
 10
330.0
 20
-655.0
 30
0.0
 11
240.0
 21
-655.0
 31
0.0
  0
LINE
  8
0
 10
240.0
 20
-605.0
 30
0.0
 11
330.0
 21
-605.0
 31
0.0
  0
LINE
  8
0
 10
240.0
 20
-655.0
 30
0.0
 11
240.0
 21
-905.0
 31
0.0
  0
LINE
  8
0
 10
240.0
 20
-905.0
 30
0.0
 11
190.0
 21
-905.0
 31
0.0
  0
LINE
  8
0
 10
330.0
 20
-605.0
 30
0.0
 11
330.0
 21
-655.0
 31
0.0
  0
LINE
  8
0
 10
370.0
 20
-80.0
 30
0.0
 11
240.0
 21
-80.0
 31
0.0
  0
LINE
  8
0
 10
40.0
 20
-40.0
 30
0.0
 11
370.0
 21
-40.0
 31
0.0
  0
LINE
  8
0
 10
0.0
 20
0.0
 30
0.0
 11
0.0
 21
-90.0
 31
0.0
  0
LINE
  8
0
 10
40.0
 20
0.0
 30
0.0
 11
40.0
 21
-40.0
 31
0.0
  0
LINE
  8
0
 10
190.0
 20
-80.0
 30
0.0
 11
190.0
 21
-265.0
 31
0.0
  0
LINE
  8
0
 10
190.0
 20
-265.0
 30
0.0
 11
40.0
 21
-265.0
 31
0.0
  0
LINE
  8
0
 10
190.0
 20
-295.0
 30
0.0
 11
40.0
 21
-295.0
 31
0.0
  0
LINE
  8
0
 10
40.0
 20
-265.0
 30
0.0
 11
40.0
 21
-220.0
 31
0.0
  0
LINE
  8
0
 10
40.0
 20
-220.0
 30
0.0
 11
0.0
 21
-220.0
 31
0.0
  0
LINE
  8
0
 10
40.0
 20
-80.0
 30
0.0
 11
190.0
 21
-80.0
 31
0.0
  0
LINE
  8
0
 10
40.0
 20
-90.0
 30
0.0
 11
40.0
 21
-80.0
 31
0.0
  0
LINE
  8
0
 10
0.0
 20
-90.0
 30
0.0
 11
40.0
 21
-90.0
 31
0.0
  0
LINE
  8
0
 10
0.0
 20
0.0
 30
0.0
 11
40.0
 21
0.0
 31
0.0
  0
LINE
  8
0
 10
370.0
 20
-40.0
 30
0.0
 11
370.0
 21
-80.0
 31
0.0
  0
ENDBLK
  8
0
  0
BLOCK
  8
0
  2
DTUER
 70
    64
 10
0.0
 20
0.0
 30
0.0
  3
DTUER
  0
ARC
  8
0
 10
0.0
 20
0.0
 30
0.0
 40
97.5
 50
90.0
 51
180.0
  0
LINE
  8
0
 10
-97.5
 20
0.0
 30
0.0
 11
0.0
 21
0.0
 31
0.0
  0
ARC
  8
0
 10
0.0
 20
195.0
 30
0.0
 40
97.5
 50
180.0
 51
270.0
  0
LINE
  8
0
 10
0.0
 20
195.0
 30
0.0
 11
-97.5
 21
195.0
 31
0.0
  0
ENDBLK
  8
0
  0
BLOCK
  8
0
  2
FTUER
 70
    64
 10
0.0
 20
0.0
 30
0.0
  3
FTUER
  0
ARC
  8
0
 10
0.0
 20
0.0
 30
0.0
 40
65.0
 50
180.0
 51
270.0
  0
ARC
  8
0
 10
0.0
 20
-130.0
 30
0.0
 40
65.0
 50
90.0
 51
180.0
  0
LINE
  8
0
 10
0.0
 20
-130.0
 30
0.0
 11
-65.0
 21
-130.0
 31
0.0
  0
LINE
  8
0
 10
0.0
 20
0.0
 30
0.0
 11
-65.0
 21
0.0
 31
0.0
  0
ENDBLK
  8
0
  0
BLOCK
  8
0
  2
ZW13
 70
    64
 10
0.0
 20
0.0
 30
0.0
  3
ZW13
  0
LINE
  8
0
 10
-50.0
 20
-55.0
 30
0.0
 11
-50.0
 21
0.0
 31
0.0
  0
LINE
  8
0
 10
-575.0
 20
50.0
 30
0.0
 11
-575.0
 21
-55.0
 31
0.0
  0
LINE
  8
0
 10
-615.0
 20
-190.0
 30
0.0
 11
-615.0
 21
50.0
 31
0.0
  0
LINE
  8
0
 10
0.0
 20
0.0
 30
0.0
 11
0.0
 21
-140.0
 31
0.0
  0
LINE
  8
0
 10
-575.0
 20
-55.0
 30
0.0
 11
-50.0
 21
-55.0
 31
0.0
  0
LINE
  8
0
 10
-50.0
 20
-85.0
 30
0.0
 11
-575.0
 21
-85.0
 31
0.0
  0
LINE
  8
0
 10
-575.0
 20
-85.0
 30
0.0
 11
-575.0
 21
-190.0
 31
0.0
  0
LINE
  8
0
 10
-575.0
 20
-190.0
 30
0.0
 11
-615.0
 21
-190.0
 31
0.0
  0
LINE
  8
0
 10
-50.0
 20
-140.0
 30
0.0
 11
-50.0
 21
-85.0
 31
0.0
  0
LINE
  8
0
 10
0.0
 20
-140.0
 30
0.0
 11
-50.0
 21
-140.0
 31
0.0
  0
LINE
  8
0
 10
-615.0
 20
50.0
 30
0.0
 11
-575.0
 21
50.0
 31
0.0
  0
LINE
  8
0
 10
-50.0
 20
0.0
 30
0.0
 11
0.0
 21
0.0
 31
0.0
  0
ENDBLK
  8
0
  0
BLOCK
  8
0
  2
ZW14
 70
    64
 10
0.0
 20
0.0
 30
0.0
  3
ZW14
  0
LINE
  8
0
 10
-575.0
 20
-55.0
 30
0.0
 11
-50.0
 21
-55.0
 31
0.0
  0
LINE
  8
0
 10
-50.0
 20
-85.0
 30
0.0
 11
-575.0
 21
-85.0
 31
0.0
  0
LINE
  8
0
 10
-615.0
 20
-180.0
 30
0.0
 11
-615.0
 21
30.0
 31
0.0
  0
LINE
  8
0
 10
-575.0
 20
-85.0
 30
0.0
 11
-575.0
 21
-180.0
 31
0.0
  0
LINE
  8
0
 10
-575.0
 20
-180.0
 30
0.0
 11
-615.0
 21
-180.0
 31
0.0
  0
LINE
  8
0
 10
-575.0
 20
30.0
 30
0.0
 11
-575.0
 21
-55.0
 31
0.0
  0
LINE
  8
0
 10
-615.0
 20
30.0
 30
0.0
 11
-575.0
 21
30.0
 31
0.0
  0
LINE
  8
0
 10
-50.0
 20
-55.0
 30
0.0
 11
-50.0
 21
0.0
 31
0.0
  0
LINE
  8
0
 10
0.0
 20
0.0
 30
0.0
 11
0.0
 21
-140.0
 31
0.0
  0
LINE
  8
0
 10
-50.0
 20
-140.0
 30
0.0
 11
-50.0
 21
-85.0
 31
0.0
  0
LINE
  8
0
 10
0.0
 20
-140.0
 30
0.0
 11
-50.0
 21
-140.0
 31
0.0
  0
LINE
  8
0
 10
-50.0
 20
0.0
 30
0.0
 11
0.0
 21
0.0
 31
0.0
  0
ENDBLK
  8
0
  0
BLOCK
  8
0
  2
ZW15
 70
    64
 10
0.0
 20
0.0
 30
0.0
  3
ZW15
  0
INSERT
  8
0
  2
ZW14
 10
0.0
 20
140.0
 30
0.0
 41
-1.0
  0
ENDBLK
  8
0
  0
BLOCK
  8
0
  2
ZW16
 70
    64
 10
0.0
 20
0.0
 30
0.0
  3
ZW16
  0
INSERT
  8
0
  2
ZW13
 10
0.0
 20
140.0
 30
0.0
 41
-1.0
  0
ENDBLK
  8
0
  0
BLOCK
  8
0
  2
ZW18
 70
    64
 10
0.0
 20
0.0
 30
0.0
  3
ZW18
  0
LINE
  8
0
 10
0.0
 20
0.0
 30
0.0
 11
-710.0
 21
0.0
 31
0.0
  0
LINE
  8
0
 10
-540.0
 20
-40.0
 30
0.0
 11
-65.0
 21
-40.0
 31
0.0
  0
LINE
  8
0
 10
-640.0
 20
-220.0
 30
0.0
 11
-590.0
 21
-220.0
 31
0.0
  0
LINE
  8
0
 10
-760.0
 20
60.0
 30
0.0
 11
-760.0
 21
-40.0
 31
0.0
  0
LINE
  8
0
 10
-640.0
 20
-40.0
 30
0.0
 11
-640.0
 21
-220.0
 31
0.0
  0
LINE
  8
0
 10
-760.0
 20
-40.0
 30
0.0
 11
-640.0
 21
-40.0
 31
0.0
  0
LINE
  8
0
 10
-710.0
 20
0.0
 30
0.0
 11
-710.0
 21
60.0
 31
0.0
  0
LINE
  8
0
 10
-710.0
 20
60.0
 30
0.0
 11
-760.0
 21
60.0
 31
0.0
  0
LINE
  8
0
 10
-590.0
 20
-220.0
 30
0.0
 11
-590.0
 21
-100.0
 31
0.0
  0
LINE
  8
0
 10
-540.0
 20
-100.0
 30
0.0
 11
-540.0
 21
-40.0
 31
0.0
  0
LINE
  8
0
 10
-590.0
 20
-100.0
 30
0.0
 11
-540.0
 21
-100.0
 31
0.0
  0
LINE
  8
0
 10
0.0
 20
-40.0
 30
0.0
 11
0.0
 21
0.0
 31
0.0
  0
LINE
  8
0
 10
-65.0
 20
-185.0
 30
0.0
 11
-25.0
 21
-185.0
 31
0.0
  0
LINE
  8
0
 10
-65.0
 20
-40.0
 30
0.0
 11
-65.0
 21
-185.0
 31
0.0
  0
LINE
  8
0
 10
-25.0
 20
-185.0
 30
0.0
 11
-25.0
 21
-40.0
 31
0.0
  0
LINE
  8
0
 10
-25.0
 20
-40.0
 30
0.0
 11
0.0
 21
-40.0
 31
0.0
  0
ENDBLK
  8
0
  0
BLOCK
  8
0
  2
FENSTER2
 70
    64
 10
0.0
 20
0.0
 30
0.0
  3
FENSTER2
  0
LINE
  8
0
 10
10.0
 20
480.0
 30
0.0
 11
10.0
 21
0.0
 31
0.0
  0
LINE
  8
0
 10
0.0
 20
0.0
 30
0.0
 11
0.0
 21
480.0
 31
0.0
  0
LINE
  8
0
 10
10.0
 20
0.0
 30
0.0
 11
0.0
 21
0.0
 31
0.0
  0
LINE
  8
0
 10
0.0
 20
480.0
 30
0.0
 11
10.0
 21
480.0
 31
0.0
  0
ENDBLK
  8
0
  0
BLOCK
  8
0
  2
DTUER2
 70
    64
 10
0.0
 20
0.0
 30
0.0
  3
DTUER2
  0
ARC
  8
0
 10
210.0
 20
0.0
 30
0.0
 40
105.0
 50
90.0
 51
180.0
  0
ARC
  8
0
 10
0.0
 20
0.0
 30
0.0
 40
105.0
 50
0.0
 51
90.0
  0
LINE
  8
0
 10
0.0
 20
0.0
 30
0.0
 11
0.0
 21
105.0
 31
0.0
  0
LINE
  8
0
 10
210.0
 20
0.0
 30
0.0
 11
210.0
 21
105.0
 31
0.0
  0
ENDBLK
  8
0
  0
BLOCK
  8
0
  2
ZW17
 70
    64
 10
0.0
 20
0.0
 30
0.0
  3
ZW17
  0
LINE
  8
0
 10
575.0
 20
-75.0
 30
0.0
 11
50.0
 21
-75.0
 31
0.0
  0
LINE
  8
0
 10
50.0
 20
-65.0
 30
0.0
 11
575.0
 21
-65.0
 31
0.0
  0
LINE
  8
0
 10
50.0
 20
-140.0
 30
0.0
 11
0.0
 21
-140.0
 31
0.0
  0
LINE
  8
0
 10
0.0
 20
0.0
 30
0.0
 11
50.0
 21
0.0
 31
0.0
  0
LINE
  8
0
 10
0.0
 20
-140.0
 30
0.0
 11
0.0
 21
0.0
 31
0.0
  0
LINE
  8
0
 10
50.0
 20
-75.0
 30
0.0
 11
50.0
 21
-140.0
 31
0.0
  0
LINE
  8
0
 10
50.0
 20
0.0
 30
0.0
 11
50.0
 21
-65.0
 31
0.0
  0
LINE
  8
0
 10
575.0
 20
-170.0
 30
0.0
 11
575.0
 21
-75.0
 31
0.0
  0
LINE
  8
0
 10
615.0
 20
115.0
 30
0.0
 11
615.0
 21
-170.0
 31
0.0
  0
LINE
  8
0
 10
615.0
 20
-170.0
 30
0.0
 11
575.0
 21
-170.0
 31
0.0
  0
LINE
  8
0
 10
575.0
 20
115.0
 30
0.0
 11
615.0
 21
115.0
 31
0.0
  0
LINE
  8
0
 10
575.0
 20
-65.0
 30
0.0
 11
575.0
 21
115.0
 31
0.0
  0
ENDBLK
  8
0
  0
BLOCK
  8
0
  2
*X35
 70
    65
 10
0.0
 20
0.0
 30
0.0
  3
*X
  0
LINE
  8
0
 62
     0
 10
4000.0
 20
1825.646648
 30
0.0
 11
4010.0
 21
1835.646648
 31
0.0
  0
LINE
  8
0
 62
     0
 10
4000.0
 20
1878.679656
 30
0.0
 11
4010.0
 21
1888.679656
 31
0.0
  0
LINE
  8
0
 62
     0
 10
4000.0
 20
1931.712665
 30
0.0
 11
4010.0
 21
1941.712665
 31
0.0
  0
LINE
  8
0
 62
     0
 10
4000.0
 20
1984.745674
 30
0.0
 11
4010.0
 21
1994.745674
 31
0.0
  0
LINE
  8
0
 62
     0
 10
4000.0
 20
1772.613639
 30
0.0
 11
4010.0
 21
1782.613639
 31
0.0
  0
LINE
  8
0
 62
     0
 10
4000.0
 20
1719.580631
 30
0.0
 11
4010.0
 21
1729.580631
 31
0.0
  0
LINE
  8
0
 62
     0
 10
4000.0
 20
1666.547622
 30
0.0
 11
4010.0
 21
1676.547622
 31
0.0
  0
LINE
  8
0
 62
     0
 10
4000.0
 20
1613.514613
 30
0.0
 11
4010.0
 21
1623.514613
 31
0.0
  0
LINE
  8
0
 62
     0
 10
4000.0
 20
1799.130144
 30
0.0
 11
4010.0
 21
1809.130144
 31
0.0
  0
LINE
  8
0
 62
     0
 10
4003.992148
 20
1856.155301
 30
0.0
 11
4003.992148
 21
1856.155301
 31
0.0
  0
LINE
  8
0
 62
     0
 10
4000.0
 20
1905.196161
 30
0.0
 11
4010.0
 21
1915.196161
 31
0.0
  0
LINE
  8
0
 62
     0
 10
4003.992148
 20
1962.221318
 30
0.0
 11
4010.0
 21
1968.229169
 31
0.0
  0
LINE
  8
0
 62
     0
 10
4000.0
 20
1746.097135
 30
0.0
 11
4003.992148
 21
1750.089283
 31
0.0
  0
LINE
  8
0
 62
     0
 10
4000.0
 20
1693.064126
 30
0.0
 11
4010.0
 21
1703.064126
 31
0.0
  0
LINE
  8
0
 62
     0
 10
4000.0
 20
1640.031118
 30
0.0
 11
4010.0
 21
1650.031118
 31
0.0
  0
LINE
  8
0
 62
     0
 10
4003.992148
 20
1590.990258
 30
0.0
 11
4010.0
 21
1596.998109
 31
0.0
  0
ENDBLK
  8
0
  0
BLOCK
  8
0
  2
MW1
 70
    64
 10
0.0
 20
0.0
 30
0.0
  3
MW1
  0
INSERT
  8
0
  2
*X35
 10
-4000.0
 20
-2000.0
 30
0.0
1001
ACAD
1000
HATCH
1002
{
1070
    16
1000
ANSI35,I
1040
150.0
1040
0.0
1002
}
  0
LINE
  8
0
 10
0.0
 20
-425.0
 30
0.0
 11
0.0
 21
0.0
 31
0.0
  0
LINE
  8
0
 10
10.0
 20
0.0
 30
0.0
 11
10.0
 21
-425.0
 31
0.0
  0
LINE
  8
0
 10
10.0
 20
-425.0
 30
0.0
 11
0.0
 21
-425.0
 31
0.0
  0
LINE
  8
0
 10
0.0
 20
0.0
 30
0.0
 11
10.0
 21
0.0
 31
0.0
  0
ENDBLK
  8
0
  0
BLOCK
  8
0
  2
*X37
 70
    65
 10
0.0
 20
0.0
 30
0.0
  3
*X
  0
LINE
  8
0
 62
     0
 10
4000.0
 20
1878.679656
 30
0.0
 11
4010.0
 21
1888.679656
 31
0.0
  0
LINE
  8
0
 62
     0
 10
4000.0
 20
1931.712665
 30
0.0
 11
4010.0
 21
1941.712665
 31
0.0
  0
LINE
  8
0
 62
     0
 10
4000.0
 20
1984.745674
 30
0.0
 11
4010.0
 21
1994.745674
 31
0.0
  0
LINE
  8
0
 62
     0
 10
4000.0
 20
1825.646648
 30
0.0
 11
4010.0
 21
1835.646648
 31
0.0
  0
LINE
  8
0
 62
     0
 10
4000.0
 20
1772.613639
 30
0.0
 11
4010.0
 21
1782.613639
 31
0.0
  0
LINE
  8
0
 62
     0
 10
4005.419369
 20
1725.0
 30
0.0
 11
4010.0
 21
1729.580631
 31
0.0
  0
LINE
  8
0
 62
     0
 10
4000.0
 20
1905.196161
 30
0.0
 11
4010.0
 21
1915.196161
 31
0.0
  0
LINE
  8
0
 62
     0
 10
4003.992148
 20
1962.221318
 30
0.0
 11
4010.0
 21
1968.229169
 31
0.0
  0
LINE
  8
0
 62
     0
 10
4003.992148
 20
1856.155301
 30
0.0
 11
4003.992148
 21
1856.155301
 31
0.0
  0
LINE
  8
0
 62
     0
 10
4000.0
 20
1799.130144
 30
0.0
 11
4010.0
 21
1809.130144
 31
0.0
  0
LINE
  8
0
 62
     0
 10
4000.0
 20
1746.097135
 30
0.0
 11
4003.992148
 21
1750.089283
 31
0.0
  0
ENDBLK
  8
0
  0
BLOCK
  8
0
  2
MW2
 70
    64
 10
0.0
 20
0.0
 30
0.0
  3
MW2
  0
INSERT
  8
0
  2
*X37
 10
-4000.0
 20
-2000.0
 30
0.0
1001
ACAD
1000
HATCH
1002
{
1070
    16
1000
ANSI35,I
1040
150.0
1040
0.0
1002
}
  0
LINE
  8
0
 10
0.0
 20
-275.0
 30
0.0
 11
0.0
 21
0.0
 31
0.0
  0
LINE
  8
0
 10
10.0
 20
0.0
 30
0.0
 11
10.0
 21
-275.0
 31
0.0
  0
LINE
  8
0
 10
10.0
 20
-275.0
 30
0.0
 11
0.0
 21
-275.0
 31
0.0
  0
LINE
  8
0
 10
0.0
 20
0.0
 30
0.0
 11
10.0
 21
0.0
 31
0.0
  0
ENDBLK
  8
0
  0
BLOCK
  8
0
  2
*X39
 70
    65
 10
0.0
 20
0.0
 30
0.0
  3
*X
  0
LINE
  8
0
 62
     0
 10
4000.0
 20
1772.613639
 30
0.0
 11
4010.0
 21
1782.613639
 31
0.0
  0
LINE
  8
0
 62
     0
 10
4000.0
 20
1825.646648
 30
0.0
 11
4010.0
 21
1835.646648
 31
0.0
  0
LINE
  8
0
 62
     0
 10
4000.0
 20
1878.679656
 30
0.0
 11
4010.0
 21
1888.679656
 31
0.0
  0
LINE
  8
0
 62
     0
 10
4000.0
 20
1931.712665
 30
0.0
 11
4010.0
 21
1941.712665
 31
0.0
  0
LINE
  8
0
 62
     0
 10
4000.0
 20
1984.745674
 30
0.0
 11
4010.0
 21
1994.745674
 31
0.0
  0
LINE
  8
0
 62
     0
 10
4000.0
 20
1719.580631
 30
0.0
 11
4010.0
 21
1729.580631
 31
0.0
  0
LINE
  8
0
 62
     0
 10
4000.0
 20
1666.547622
 30
0.0
 11
4010.0
 21
1676.547622
 31
0.0
  0
LINE
  8
0
 62
     0
 10
4000.0
 20
1613.514613
 30
0.0
 11
4010.0
 21
1623.514613
 31
0.0
  0
LINE
  8
0
 62
     0
 10
4000.0
 20
1560.481605
 30
0.0
 11
4010.0
 21
1570.481605
 31
0.0
  0
LINE
  8
0
 62
     0
 10
4000.0
 20
1507.448596
 30
0.0
 11
4010.0
 21
1517.448596
 31
0.0
  0
LINE
  8
0
 62
     0
 10
4000.0
 20
1746.097135
 30
0.0
 11
4003.992148
 21
1750.089283
 31
0.0
  0
LINE
  8
0
 62
     0
 10
4000.0
 20
1799.130144
 30
0.0
 11
4010.0
 21
1809.130144
 31
0.0
  0
LINE
  8
0
 62
     0
 10
4003.992148
 20
1856.155301
 30
0.0
 11
4003.992148
 21
1856.155301
 31
0.0
  0
LINE
  8
0
 62
     0
 10
4000.0
 20
1905.196161
 30
0.0
 11
4010.0
 21
1915.196161
 31
0.0
  0
LINE
  8
0
 62
     0
 10
4003.992148
 20
1962.221318
 30
0.0
 11
4010.0
 21
1968.229169
 31
0.0
  0
LINE
  8
0
 62
     0
 10
4000.0
 20
1693.064126
 30
0.0
 11
4010.0
 21
1703.064126
 31
0.0
  0
LINE
  8
0
 62
     0
 10
4000.0
 20
1640.031118
 30
0.0
 11
4010.0
 21
1650.031118
 31
0.0
  0
LINE
  8
0
 62
     0
 10
4003.992148
 20
1590.990258
 30
0.0
 11
4010.0
 21
1596.998109
 31
0.0
  0
LINE
  8
0
 62
     0
 10
4000.0
 20
1533.965101
 30
0.0
 11
4010.0
 21
1543.965101
 31
0.0
  0
LINE
  8
0
 62
     0
 10
4003.992148
 20
1484.92424
 30
0.0
 11
4003.992148
 21
1484.92424
 31
0.0
  0
ENDBLK
  8
0
  0
BLOCK
  8
0
  2
MW3
 70
    64
 10
0.0
 20
0.0
 30
0.0
  3
MW3
  0
INSERT
  8
0
  2
*X39
 10
-4000.0
 20
-2000.0
 30
0.0
1001
ACAD
1000
HATCH
1002
{
1070
    16
1000
ANSI35,I
1040
150.0
1040
0.0
1002
}
  0
LINE
  8
0
 10
0.0
 20
-525.0
 30
0.0
 11
0.0
 21
0.0
 31
0.0
  0
LINE
  8
0
 10
10.0
 20
0.0
 30
0.0
 11
10.0
 21
-525.0
 31
0.0
  0
LINE
  8
0
 10
10.0
 20
-525.0
 30
0.0
 11
0.0
 21
-525.0
 31
0.0
  0
LINE
  8
0
 10
0.0
 20
0.0
 30
0.0
 11
10.0
 21
0.0
 31
0.0
  0
ENDBLK
  8
0
  0
BLOCK
  8
0
  2
FENSTER1
 70
    64
 10
0.0
 20
0.0
 30
0.0
  3
FENSTER1
  0
LINE
  8
0
 10
0.0
 20
-180.0
 30
0.0
 11
0.0
 21
0.0
 31
0.0
  0
LINE
  8
0
 10
10.0
 20
0.0
 30
0.0
 11
10.0
 21
-180.0
 31
0.0
  0
LINE
  8
0
 10
10.0
 20
-180.0
 30
0.0
 11
0.0
 21
-180.0
 31
0.0
  0
LINE
  8
0
 10
0.0
 20
0.0
 30
0.0
 11
10.0
 21
0.0
 31
0.0
  0
ENDBLK
  8
0
  0
BLOCK
  8
0
  2
M_TUER1
 70
    64
 10
0.0
 20
0.0
 30
0.0
  3
M_TUER1
  0
ARC
  8
0
 10
0.0
 20
0.0
 30
0.0
 40
100.0
 50
270.0
 51
0.0
  0
LINE
  8
0
 10
0.0
 20
0.0
 30
0.0
 11
100.0
 21
0.0
 31
0.0
  0
ENDBLK
  8
0
  0
BLOCK
  8
0
  2
TUER2
 70
    64
 10
0.0
 20
0.0
 30
0.0
  3
TUER2
  0
ARC
  8
0
 10
0.0
 20
0.0
 30
0.0
 40
100.0
 50
180.0
 51
270.0
  0
LINE
  8
0
 10
0.0
 20
0.0
 30
0.0
 11
0.0
 21
-100.0
 31
0.0
  0
ENDBLK
  8
0
  0
ENDSEC
  0
SECTION
  2
ENTITIES
  0
INSERT
  8
0
  2
ZW1
 10
500.0
 20
2500.0
 30
0.0
  0
INSERT
  8
0
  2
FENSTER
 10
810.0
 20
2500.0
 30
0.0
  0
INSERT
  8
0
  2
ZW2
 10
990.0
 20
2500.0
 30
0.0
  0
INSERT
  8
0
  2
FENSTER
 10
1130.0
 20
2500.0
 30
0.0
  0
INSERT
  8
0
  2
ZW2
 10
1310.0
 20
2500.0
 30
0.0
  0
INSERT
  8
0
  2
FENSTER
 10
1450.0
 20
2500.0
 30
0.0
  0
INSERT
  8
0
  2
ZW3
 10
1630.0
 20
2500.0
 30
0.0
  0
INSERT
  8
0
  2
ZW4
 10
1295.0
 20
1925.0
 30
0.0
  0
INSERT
  8
0
  2
ZW5
 10
380.0
 20
1925.0
 30
0.0
  0
INSERT
  8
0
  2
GW1
 10
1055.0
 20
2450.0
 30
0.0
  0
INSERT
  8
0
  2
GW2
 10
1055.0
 20
2015.0
 30
0.0
  0
INSERT
  8
0
  2
ZW6
 10
1950.0
 20
2500.0
 30
0.0
  0
INSERT
  8
0
  2
FENSTER
 10
1770.0
 20
2500.0
 30
0.0
  0
INSERT
  8
0
  2
ZW7
 10
2270.0
 20
2500.0
 30
0.0
  0
INSERT
  8
0
  2
FENSTER
 10
2090.0
 20
2500.0
 30
0.0
  0
INSERT
  8
0
  2
ZW8
 10
2590.0
 20
2500.0
 30
0.0
  0
INSERT
  8
0
  2
FENSTER
 10
2410.0
 20
2500.0
 30
0.0
  0
INSERT
  8
0
  2
FENSTER
 10
2730.0
 20
2500.0
 30
0.0
  0
INSERT
  8
0
  2
ZW2
 10
2910.0
 20
2500.0
 30
0.0
  0
INSERT
  8
0
  2
ZW2
 10
3230.0
 20
2500.0
 30
0.0
  0
INSERT
  8
0
  2
ZW2
 10
3550.0
 20
2500.0
 30
0.0
  0
INSERT
  8
0
  2
ZW2
 10
3870.0
 20
2500.0
 30
0.0
  0
INSERT
  8
0
  2
ZW2
 10
4190.0
 20
2500.0
 30
0.0
  0
INSERT
  8
0
  2
FENSTER
 10
3050.0
 20
2500.0
 30
0.0
  0
INSERT
  8
0
  2
FENSTER
 10
3370.0
 20
2500.0
 30
0.0
  0
INSERT
  8
0
  2
FENSTER
 10
3690.0
 20
2500.0
 30
0.0
  0
INSERT
  8
0
  2
FENSTER
 10
4010.0
 20
2500.0
 30
0.0
  0
INSERT
  8
0
  2
SAEULE
 10
3275.0
 20
1925.0
 30
0.0
  0
INSERT
  8
0
  2
SAEULE
 10
3275.0
 20
1610.0
 30
0.0
  0
INSERT
  8
0
  2
GW3
 10
3295.0
 20
2450.0
 30
0.0
  0
INSERT
  8
0
  2
GW4
 10
2700.0
 20
1910.0
 30
0.0
  0
INSERT
  8
0
  2
ZW9
 10
4510.0
 20
2500.0
 30
0.0
  0
INSERT
  8
0
  2
FENSTER
 10
4330.0
 20
2500.0
 30
0.0
  0
INSERT
  8
0
  2
SAEULE
 10
3915.0
 20
1925.0
 30
0.0
  0
INSERT
  8
0
  2
SAEULE
 10
3915.0
 20
1610.0
 30
0.0
  0
INSERT
  8
0
  2
ZW10
 10
4600.0
 20
2350.0
 30
0.0
  0
INSERT
  8
0
  2
FENSTER
 10
3690.0
 20
1005.0
 30
0.0
  0
INSERT
  8
0
  2
FENSTER
 10
4010.0
 20
1005.0
 30
0.0
  0
INSERT
  8
0
  2
FENSTER
 10
4330.0
 20
1005.0
 30
0.0
  0
INSERT
  8
0
  2
GW3
 10
3295.0
 20
1570.0
 30
0.0
  0
INSERT
  8
0
  2
FENSTER
 10
3370.0
 20
1005.0
 30
0.0
  0
INSERT
  8
0
  2
FENSTER
 10
3050.0
 20
1005.0
 30
0.0
  0
INSERT
  8
0
  2
ZW11
 10
2230.0
 20
1610.0
 30
0.0
  0
INSERT
  8
0
  2
FENSTER
 10
2730.0
 20
1005.0
 30
0.0
  0
INSERT
  8
0
  2
GW4
 10
2700.0
 20
1595.0
 30
0.0
  0
INSERT
  8
0
  2
FENSTER
 10
2410.0
 20
1005.0
 30
0.0
  0
INSERT
  8
0
  2
ZW12
 10
1760.0
 20
1650.0
 30
0.0
  0
INSERT
  8
0
  2
FENSTER
 10
2090.0
 20
1005.0
 30
0.0
  0
INSERT
  8
0
  2
DTUER
 10
1760.0
 20
1650.0
 30
0.0
  0
INSERT
  8
0
  2
FTUER
 10
1760.0
 20
1560.0
 30
0.0
  0
INSERT
  8
0
  2
ZW13
 10
2000.0
 20
565.0
 30
0.0
  0
INSERT
  8
0
  2
ZW14
 10
2000.0
 20
245.0
 30
0.0
  0
INSERT
  8
0
  2
ZW15
 10
500.0
 20
105.0
 30
0.0
  0
INSERT
  8
0
  2
ZW16
 10
500.0
 20
425.0
 30
0.0
  0
INSERT
  8
0
  2
ZW18
 10
1140.0
 20
1285.0
 30
0.0
  0
INSERT
  8
0
  2
FENSTER2
 10
380.0
 20
1345.0
 30
0.0
  0
INSERT
  8
0
  2
DTUER2
 10
1140.0
 20
1285.0
 30
0.0
  0
LINE
  8
0
 10
680.0
 20
1635.0
 30
0.0
 11
1075.0
 21
1635.0
 31
0.0
  0
LINE
  8
0
 10
1075.0
 20
1635.0
 30
0.0
 11
1075.0
 21
1535.0
 31
0.0
  0
LINE
  8
0
 10
1075.0
 20
1535.0
 30
0.0
 11
680.0
 21
1535.0
 31
0.0
  0
LINE
  8
0
 10
680.0
 20
1535.0
 30
0.0
 11
680.0
 21
1635.0
 31
0.0
  0
LINE
  8
0
 10
697.5
 20
1885.0
 30
0.0
 11
697.5
 21
1635.0
 31
0.0
  0
LINE
  8
0
 10
697.5
 20
1535.0
 30
0.0
 11
697.5
 21
1285.0
 31
0.0
  0
LINE
  8
0
 10
727.5
 20
1885.0
 30
0.0
 11
727.5
 21
1635.0
 31
0.0
  0
LINE
  8
0
 10
727.5
 20
1535.0
 30
0.0
 11
727.5
 21
1285.0
 31
0.0
  0
LINE
  8
0
 10
757.5
 20
1885.0
 30
0.0
 11
757.5
 21
1635.0
 31
0.0
  0
LINE
  8
0
 10
757.5
 20
1535.0
 30
0.0
 11
757.5
 21
1285.0
 31
0.0
  0
LINE
  8
0
 10
787.5
 20
1885.0
 30
0.0
 11
787.5
 21
1635.0
 31
0.0
  0
LINE
  8
0
 10
787.5
 20
1535.0
 30
0.0
 11
787.5
 21
1285.0
 31
0.0
  0
LINE
  8
0
 10
817.5
 20
1885.0
 30
0.0
 11
817.5
 21
1635.0
 31
0.0
  0
LINE
  8
0
 10
817.5
 20
1535.0
 30
0.0
 11
817.5
 21
1285.0
 31
0.0
  0
LINE
  8
0
 10
847.5
 20
1885.0
 30
0.0
 11
847.5
 21
1635.0
 31
0.0
  0
LINE
  8
0
 10
847.5
 20
1535.0
 30
0.0
 11
847.5
 21
1285.0
 31
0.0
  0
LINE
  8
0
 10
877.5
 20
1885.0
 30
0.0
 11
877.5
 21
1635.0
 31
0.0
  0
LINE
  8
0
 10
877.5
 20
1535.0
 30
0.0
 11
877.5
 21
1285.0
 31
0.0
  0
LINE
  8
0
 10
907.5
 20
1885.0
 30
0.0
 11
907.5
 21
1635.0
 31
0.0
  0
LINE
  8
0
 10
907.5
 20
1535.0
 30
0.0
 11
907.5
 21
1285.0
 31
0.0
  0
LINE
  8
0
 10
937.5
 20
1885.0
 30
0.0
 11
937.5
 21
1635.0
 31
0.0
  0
LINE
  8
0
 10
937.5
 20
1535.0
 30
0.0
 11
937.5
 21
1285.0
 31
0.0
  0
LINE
  8
0
 10
967.5
 20
1885.0
 30
0.0
 11
967.5
 21
1635.0
 31
0.0
  0
LINE
  8
0
 10
967.5
 20
1535.0
 30
0.0
 11
967.5
 21
1285.0
 31
0.0
  0
LINE
  8
0
 10
997.5
 20
1885.0
 30
0.0
 11
997.5
 21
1635.0
 31
0.0
  0
LINE
  8
0
 10
997.5
 20
1535.0
 30
0.0
 11
997.5
 21
1285.0
 31
0.0
  0
LINE
  8
0
 10
1027.5
 20
1885.0
 30
0.0
 11
1027.5
 21
1635.0
 31
0.0
  0
LINE
  8
0
 10
1027.5
 20
1535.0
 30
0.0
 11
1027.5
 21
1285.0
 31
0.0
  0
LINE
  8
0
 10
1057.5
 20
1885.0
 30
0.0
 11
1057.5
 21
1635.0
 31
0.0
  0
LINE
  8
0
 10
1057.5
 20
1535.0
 30
0.0
 11
1057.5
 21
1285.0
 31
0.0
  0
LINE
  8
0
 10
1057.5
 20
1760.0
 30
0.0
 11
564.0
 21
1760.0
 31
0.0
  0
LINE
  8
0
 10
564.0
 20
1760.0
 30
0.0
 11
564.0
 21
1410.0
 31
0.0
  0
LINE
  8
0
 10
564.0
 20
1410.0
 30
0.0
 11
1057.5
 21
1410.0
 31
0.0
  0
CIRCLE
  8
0
 10
1057.5
 20
1760.0
 30
0.0
 40
5.0
  0
LINE
  8
0
 10
1058.365204
 20
1409.076408
 30
0.0
 11
1023.761178
 21
1418.682212
 31
0.0
  0
LINE
  8
0
 10
1023.761178
 20
1418.682212
 30
0.0
 11
1060.287651
 21
1409.076408
 31
0.0
  0
LINE
  8
0
 10
1060.287651
 20
1409.076408
 30
0.0
 11
1021.838742
 21
1397.549444
 31
0.0
  0
INSERT
  8
0
  2
ZW17
 10
500.0
 20
885.0
 30
0.0
  0
INSERT
  8
0
  2
MW1
 10
4590.0
 20
2350.0
 30
0.0
  0
INSERT
  8
0
  2
MW2
 10
4590.0
 20
1885.0
 30
0.0
  0
INSERT
  8
0
  2
MW3
 10
4590.0
 20
1570.0
 30
0.0
  0
INSERT
  8
0
  2
G_DTUER
 10
3300.0
 20
1610.0
 30
0.0
  0
INSERT
  8
0
  2
GW5
 10
2900.0
 20
1910.0
 30
0.0
  0
INSERT
  8
0
  2
GW5
 10
2900.0
 20
1595.0
 30
0.0
  0
INSERT
  8
0
  2
ZW2
 10
2270.0
 20
1045.0
 30
0.0
  0
INSERT
  8
0
  2
ZW2
 10
2910.0
 20
1045.0
 30
0.0
  0
INSERT
  8
0
  2
ZW2
 10
3550.0
 20
1045.0
 30
0.0
  0
INSERT
  8
0
  2
ZW2
 10
3870.0
 20
1045.0
 30
0.0
  0
INSERT
  8
0
  2
ZW2
 10
4190.0
 20
1045.0
 30
0.0
  0
INSERT
  8
0
  2
FENSTER1
 10
500.0
 20
2250.0
 30
0.0
  0
INSERT
  8
0
  2
FENSTER1
 10
500.0
 20
1065.0
 30
0.0
  0
INSERT
  8
0
  2
FENSTER1
 10
500.0
 20
745.0
 30
0.0
  0
INSERT
  8
0
  2
FENSTER1
 10
500.0
 20
425.0
 30
0.0
  0
INSERT
  8
0
  2
FENSTER1
 10
1990.0
 20
745.0
 30
0.0
  0
INSERT
  8
0
  2
FENSTER1
 10
1990.0
 20
425.0
 30
0.0
  0
INSERT
  8
0
  2
TUER
 10
1055.0
 20
2115.0
 30
0.0
  0
INSERT
  8
0
  2
TUER
 10
1685.0
 20
2115.0
 30
0.0
  0
INSERT
  8
0
  2
TUER
 10
1075.0
 20
1100.0
 30
0.0
  0
INSERT
  8
0
  2
TUER
 10
1075.0
 20
715.0
 30
0.0
  0
INSERT
  8
0
  2
TUER
 10
1075.0
 20
375.0
 30
0.0
  0
INSERT
  8
0
  2
TUER
 10
1425.0
 20
375.0
 30
0.0
  0
INSERT
  8
0
  2
TUER
 10
1425.0
 20
715.0
 30
0.0
  0
INSERT
  8
0
  2
M_TUER1
 10
4640.0
 20
2450.0
 30
0.0
  0
INSERT
  8
0
  2
G_TUER
 10
1295.0
 20
1885.0
 30
0.0
  0
INSERT
  8
0
  2
M_TUER
 10
1945.0
 20
1885.0
 30
0.0
  0
INSERT
  8
0
  2
M_TUER
 10
2230.0
 20
1885.0
 30
0.0
  0
INSERT
  8
0
  2
M_TUER
 10
2230.0
 20
1570.0
 30
0.0
  0
INSERT
  8
0
  2
M_TUER
 10
2560.0
 20
1885.0
 30
0.0
  0
INSERT
  8
0
  2
TUER2
 10
2900.0
 20
1900.0
 30
0.0
  0
INSERT
  8
0
  2
TUER2
 10
2900.0
 20
1585.0
 30
0.0
  0
INSERT
  8
0
  2
ZW2
 10
3230.0
 20
1045.0
 30
0.0
  0
ENDSEC
  0
EOF
