#define checkonhi_width 16
#define checkonhi_height 16
static char checkonhi_bits[] = {
   0x00, 0x00, 0xf8, 0x6f, 0xa8, 0x32, 0xfe, 0x19, 0x02, 0x2c, 0x02, 0x36,
   0x02, 0x23, 0x80, 0x39, 0xc2, 0x29, 0xec, 0x38, 0x7a, 0x28, 0x72, 0x38,
   0x62, 0x28, 0x62, 0x38, 0x02, 0x08, 0xfe, 0x0f};
