#define checkoffhi_width 16
#define checkoffhi_height 16
static char checkoffhi_bits[] = {
   0x00, 0x00, 0xf8, 0x3f, 0xa8, 0x2a, 0xfe, 0x3f, 0x02, 0x28, 0x02, 0x38,
   0x02, 0x28, 0x02, 0x38, 0x02, 0x28, 0x02, 0x38, 0x02, 0x28, 0x02, 0x38,
   0x02, 0x28, 0x02, 0x28, 0x02, 0x38, 0xfe, 0x0f};
